<svg id="SvgjsSvg1001" width="288" height="288" xmlns="http://www.w3.org/2000/svg" version="1.1" xmlns:xlink="http://www.w3.org/1999/xlink" xmlns:svgjs="http://svgjs.com/svgjs"><defs id="SvgjsDefs1002"></defs><g id="SvgjsG1008" transform="matrix(1,0,0,1,0,0)"><svg xmlns="http://www.w3.org/2000/svg" enable-background="new 0 0 231.597 231.597" viewBox="0 0 231.597 231.597" width="288" height="288"><path d="M2.499 211.77h42.076c1.123 0 2.109-.749 2.41-1.832l12.271-44.237h47.637l13.313 44.289c.318 1.057 1.291 1.78 2.395 1.78h43.672c.008 0 .016 0 .02 0 1.381 0 2.5-1.119 2.5-2.5 0-.369-.078-.719-.223-1.034l-55.564-179.19c-.324-1.046-1.293-1.76-2.389-1.76h-53.26c-1.1 0-2.07.718-2.391 1.769L.109 208.539c-.23.758-.09 1.581.381 2.218C.962 211.394 1.706 211.77 2.499 211.77zM99.554 130.342H66.511l9.764-34.902c1.773-6.289 3.449-13.731 5.07-20.928.371-1.653.736-3.275 1.098-4.861 2.145 8.622 4.504 17.937 6.869 25.815L99.554 130.342zM187.288 76.551c-1.381 0-2.5 1.119-2.5 2.5V209.27c0 1.381 1.119 2.5 2.5 2.5h40.477c1.381 0 2.5-1.119 2.5-2.5V79.051c0-1.381-1.119-2.5-2.5-2.5H187.288zM207.261 65.571c14.102 0 24.336-9.563 24.336-22.795-.307-13.512-10.205-22.949-24.07-22.949-7.078 0-13.363 2.442-17.697 6.878-4.067 4.16-6.234 9.886-6.108 16.127-.129 6.043 2.043 11.666 6.119 15.84C194.185 63.121 200.372 65.571 207.261 65.571z" fill="#ffffff" class="color000 svgShape"></path></svg></g></svg>