<svg id="SvgjsSvg1001" width="288" height="288" xmlns="http://www.w3.org/2000/svg" version="1.1" xmlns:xlink="http://www.w3.org/1999/xlink" xmlns:svgjs="http://svgjs.com/svgjs"><defs id="SvgjsDefs1002"></defs><g id="SvgjsG1008" transform="matrix(1,0,0,1,0,0)"><svg xmlns="http://www.w3.org/2000/svg" enable-background="new 0 0 512 512" viewBox="0 0 512 512" width="288" height="288"><path d="M256 0c-49.629 0-90 41.371-90 91 0 49.629 40.371 90 90 90 49.629 0 90-40.371 90-90C346 41.371 305.629 0 256 0zM286 181h-30-30c-21.158 0-41.603 5.469-60.19 14.773 31.569 8.518 61.293 20.786 90.19 37.372 28.898-16.586 58.621-28.854 90.19-37.372C327.603 186.469 307.158 181 286 181zM482 271c-16.569 0-30 13.431-30 30v60c0 16.567 13.431 30 30 30 16.569 0 30-13.433 30-30v-60C512 284.431 498.569 271 482 271zM30 271c-16.569 0-30 13.431-30 30v60c0 16.567 13.431 30 30 30 16.569 0 30-13.433 30-30v-60C60 284.431 46.569 271 30 271z" fill="#ffffff" class="color000 svgShape"></path><path d="M45 211c-8.291 0-15 6.709-15 15v15c33.091 0 60 26.909 60 60v60c0 33.091-26.909 60-60 60v15c0 8.291 6.709 15 15 15 76.901 0 138.39 24.286 196 61V259.594C183.13 226.414 120.903 211 45 211zM482 241v-15c0-8.291-6.709-15-15-15-75.903 0-138.13 15.414-196 48.594V512c57.61-36.714 119.099-61 196-61 8.291 0 15-6.709 15-15v-15c-33.091 0-60-26.909-60-60v-60C422 267.909 448.909 241 482 241z" fill="#ffffff" class="color000 svgShape"></path></svg></g></svg>