<svg xmlns="http://www.w3.org/2000/svg" width="512" height="512" viewBox="0 0 512 512" version="1.1"><path d="M 238.500 105.074 C 203.133 109.300, 169.196 126.677, 144.594 153.158 C 102.131 198.866, 92.101 267.210, 119.748 322.461 C 144.208 371.343, 191.843 403.407, 245.237 406.930 C 257.970 407.771, 275.462 406.745, 286 404.539 C 325.546 396.264, 360.359 372.707, 382.504 339.238 C 385.147 335.244, 387.127 331.837, 386.905 331.666 C 382.783 328.514, 321.451 294.147, 321.214 294.857 C 321.030 295.409, 318.666 298.784, 315.961 302.358 C 307.186 313.949, 294.426 322.838, 278.946 328.145 C 270.208 331.140, 268.526 331.383, 256.500 331.396 C 241.777 331.411, 234.947 329.979, 223.391 324.457 C 208.040 317.122, 195.246 304.205, 187.984 288.707 C 182.635 277.293, 180.738 268.728, 180.738 256 C 180.738 242.770, 182.720 234.278, 188.670 222.017 C 192.629 213.857, 194.616 211.189, 202.902 202.902 C 211.189 194.616, 213.857 192.629, 222.017 188.670 C 234.251 182.733, 242.767 180.741, 256 180.723 C 269.080 180.705, 277.476 182.685, 289.787 188.693 C 300.181 193.766, 312.504 204.368, 318.172 213.116 C 319.929 215.827, 321.699 217.922, 322.106 217.772 C 325.039 216.693, 386.961 180.323, 386.978 179.670 C 386.990 179.213, 384.207 174.713, 380.792 169.670 C 372.501 157.422, 354.241 139.254, 342.047 131.121 C 323.864 118.994, 301.933 109.925, 282.500 106.500 C 271.303 104.526, 249.109 103.807, 238.500 105.074 M 374 239.500 L 374 248 365.500 248 L 357 248 357 256 L 357 264 365.500 264 L 374 264 374 272.500 L 374 281 382.500 281 L 391 281 391 272.500 L 391 264 399.500 264 L 408 264 408 256 L 408 248 399.500 248 L 391 248 391 239.500 L 391 231 382.500 231 L 374 231 374 239.500 M 437 239.500 L 437 248 428.500 248 L 420 248 420 256 L 420 264 428.500 264 L 437 264 437 272.500 L 437 281 445.500 281 L 454 281 454 272.500 L 454 264 462.500 264 L 471 264 471 256 L 471 248 462.500 248 L 454 248 454 239.500 L 454 231 445.500 231 L 437 231 437 239.500" stroke="none" fill="#fbfbfb" fill-rule="evenodd"/><path d="M 242.500 1.799 C 239.750 2.752, 194.546 28.275, 142.047 58.516 C 36.123 119.532, 38.927 117.663, 32.215 131.720 L 28.500 139.500 28.500 256 L 28.500 372.500 32.210 380.269 C 38.873 394.223, 36.089 392.369, 142.500 453.712 C 195.300 484.150, 240.719 509.716, 243.432 510.527 C 249.759 512.417, 262.241 512.417, 268.568 510.527 C 271.281 509.716, 316.700 484.150, 369.500 453.712 C 475.911 392.369, 473.127 394.223, 479.790 380.269 L 483.500 372.500 483.500 255.925 L 483.500 139.349 479.236 130.744 C 476.257 124.732, 473.545 120.877, 470.236 117.950 C 464.190 112.603, 275.225 3.462, 268.568 1.473 C 261.845 -0.535, 248.762 -0.372, 242.500 1.799 M 238.500 105.074 C 203.133 109.300, 169.196 126.677, 144.594 153.158 C 102.131 198.866, 92.101 267.210, 119.748 322.461 C 144.208 371.343, 191.843 403.407, 245.237 406.930 C 257.970 407.771, 275.462 406.745, 286 404.539 C 325.546 396.264, 360.359 372.707, 382.504 339.238 C 385.147 335.244, 387.127 331.837, 386.905 331.666 C 382.783 328.514, 321.451 294.147, 321.214 294.857 C 321.030 295.409, 318.666 298.784, 315.961 302.358 C 307.186 313.949, 294.426 322.838, 278.946 328.145 C 270.208 331.140, 268.526 331.383, 256.500 331.396 C 241.777 331.411, 234.947 329.979, 223.391 324.457 C 208.040 317.122, 195.246 304.205, 187.984 288.707 C 182.635 277.293, 180.738 268.728, 180.738 256 C 180.738 242.770, 182.720 234.278, 188.670 222.017 C 192.629 213.857, 194.616 211.189, 202.902 202.902 C 211.189 194.616, 213.857 192.629, 222.017 188.670 C 234.251 182.733, 242.767 180.741, 256 180.723 C 269.080 180.705, 277.476 182.685, 289.787 188.693 C 300.181 193.766, 312.504 204.368, 318.172 213.116 C 319.929 215.827, 321.699 217.922, 322.106 217.772 C 325.039 216.693, 386.961 180.323, 386.978 179.670 C 386.990 179.213, 384.207 174.713, 380.792 169.670 C 372.501 157.422, 354.241 139.254, 342.047 131.121 C 323.864 118.994, 301.933 109.925, 282.500 106.500 C 271.303 104.526, 249.109 103.807, 238.500 105.074 M 374 239.500 L 374 248 365.500 248 L 357 248 357 256 L 357 264 365.500 264 L 374 264 374 272.500 L 374 281 382.500 281 L 391 281 391 272.500 L 391 264 399.500 264 L 408 264 408 256 L 408 248 399.500 248 L 391 248 391 239.500 L 391 231 382.500 231 L 374 231 374 239.500 M 437 239.500 L 437 248 428.500 248 L 420 248 420 256 L 420 264 428.500 264 L 437 264 437 272.500 L 437 281 445.500 281 L 454 281 454 272.500 L 454 264 462.500 264 L 471 264 471 256 L 471 248 462.500 248 L 454 248 454 239.500 L 454 231 445.500 231 L 437 231 437 239.500" stroke="none" fill="#3172af" fill-rule="evenodd"/></svg>