<svg xmlns="http://www.w3.org/2000/svg" width="456" height="512" viewBox="0 0 456 512" version="1.1"><path d="M 203.526 88.527 C 131.694 100.176, 77.860 151.888, 62.794 223.711 C 60.858 232.939, 60.531 237.538, 60.528 255.500 C 60.526 273.237, 60.871 278.209, 62.748 287.500 C 76.344 354.822, 128.468 407.487, 194.836 420.959 C 257.093 433.597, 320.568 410.900, 359.973 361.912 C 369.472 350.104, 375.447 340.999, 374.320 340.050 C 373.869 339.669, 367.200 335.723, 359.500 331.280 C 351.800 326.838, 335.825 317.558, 324 310.659 C 306.949 300.710, 302.293 298.394, 301.500 299.465 C 300.950 300.208, 298.475 303.627, 296 307.064 C 290.974 314.043, 280.335 323.494, 272 328.386 C 238.786 347.878, 196.443 342.569, 169.487 315.533 C 161.579 307.601, 156.837 300.719, 152.239 290.500 C 147.277 279.470, 145.797 272.666, 145.266 258.433 C 144.850 247.260, 145.097 244.070, 146.974 236.433 C 156.456 197.850, 189.456 171.880, 229 171.880 C 256.068 171.880, 279.765 183.615, 295.877 204.998 L 301.659 212.671 332.580 194.865 C 349.586 185.073, 366.112 175.538, 369.305 173.677 L 375.109 170.294 369.126 161.349 C 344.504 124.539, 307.300 99.672, 262.288 89.940 C 249.293 87.131, 216.935 86.353, 203.526 88.527 M 347.781 219.250 L 347.500 231.500 335.750 231.782 L 324 232.063 324 237.532 L 324 243 336 243 L 348 243 348 255 L 348 267 336 267 L 324 267 324 273 L 324 279 336 279 L 348 279 348 291 L 348 303 353.500 303 L 359 303 359 291 L 359 279 371.500 279 L 384 279 384 291 L 384 303 389.500 303 L 395 303 395 291 L 395 279 407 279 L 419 279 419 273 L 419 267 407 267 L 395 267 395 255 L 395 243 407 243 L 419 243 419 237.532 L 419 232.063 407.250 231.782 L 395.500 231.500 395.219 219.250 L 394.938 207 389.500 207 L 384.062 207 383.781 219.250 L 383.500 231.500 372.080 231.784 C 363.617 231.995, 360.450 231.736, 359.846 230.784 C 359.397 230.078, 359.024 224.438, 359.015 218.250 L 359 207 353.531 207 L 348.062 207 347.781 219.250 M 359.432 244.318 C 359.154 245.042, 359.055 250.330, 359.213 256.068 L 359.500 266.500 371.750 266.781 L 384 267.062 384 255.031 L 384 243 371.969 243 C 362.937 243, 359.811 243.328, 359.432 244.318" stroke="none" fill="#ffffff" fill-rule="evenodd"/><path d="M 216 0.946 C 211.857 2.227, 202.230 7.201, 188.500 15.151 C 166.853 27.686, 149.210 37.858, 135 45.998 C 127.575 50.251, 115.537 57.167, 108.250 61.366 C 100.963 65.565, 89.263 72.295, 82.250 76.322 C 13.673 115.702, 17.491 113.356, 10.647 120.303 C 8.529 122.454, 5.379 127.203, 3.647 130.857 L 0.500 137.500 0.500 256 L 0.500 374.500 2.774 379.248 L 5.048 383.996 8.774 381.597 C 18.709 375.197, 81.094 339.941, 81.750 340.355 C 82.162 340.616, 79.981 335.740, 76.903 329.520 C 70.567 316.716, 65.937 303.060, 62.787 287.878 C 60.986 279.201, 60.624 273.975, 60.576 256 C 60.513 232.726, 61.836 223.118, 67.631 204.776 C 86.399 145.365, 136.861 100.864, 198.500 89.365 C 213.746 86.521, 247.666 86.766, 261.773 89.822 C 307.169 99.655, 344.416 124.387, 368.686 160.811 C 371.870 165.590, 374.618 169.712, 374.793 169.972 C 374.967 170.231, 377.448 169.142, 380.305 167.550 C 387.626 163.473, 449.427 127.846, 449.842 127.464 C 450.521 126.840, 448.213 123.699, 443.693 119.095 C 439.608 114.936, 420.091 103.099, 373 76.221 C 360.509 69.091, 341.840 58.326, 332.120 52.648 C 325.862 48.992, 320.590 46, 320.406 46 C 320.222 46, 316.792 44.039, 312.785 41.643 C 290.859 28.529, 248.066 4.393, 243.168 2.379 C 238.539 0.475, 235.759 0.059, 228 0.110 C 222.775 0.144, 217.375 0.520, 216 0.946 M 221 172.126 C 185.303 175.177, 155.711 200.884, 146.974 236.433 C 145.097 244.070, 144.850 247.260, 145.266 258.433 C 145.797 272.649, 147.272 279.443, 152.228 290.500 C 155.077 296.857, 157.932 301.775, 156.582 298 C 156.200 296.933, 158.420 295.158, 164.273 291.849 C 168.798 289.291, 190.050 277.108, 211.500 264.774 C 232.950 252.441, 261.850 235.859, 275.721 227.925 C 289.593 219.991, 300.956 213.081, 300.971 212.569 C 301.027 210.753, 289.847 197.112, 284.713 192.732 C 266.122 176.871, 245.085 170.067, 221 172.126 M 358.750 179.572 C 355.012 181.600, 355.239 182.445, 359 180.500 C 360.650 179.647, 362 178.735, 362 178.474 C 362 177.831, 361.893 177.867, 358.750 179.572 M 347.214 218.750 L 347 231 335 231 L 323 231 323.189 237.250 L 323.378 243.500 323.739 237.750 L 324.100 232 335.581 232 C 344.130 232, 347.191 231.665, 347.566 230.689 C 347.843 229.968, 347.925 224.230, 347.748 217.939 L 347.428 206.500 347.214 218.750 M 359.382 218.500 C 359.384 225.100, 359.546 227.670, 359.741 224.211 C 359.937 220.752, 359.936 215.352, 359.738 212.211 C 359.540 209.070, 359.380 211.900, 359.382 218.500 M 383.214 218.718 L 383 230.937 371.250 231.253 L 359.500 231.570 371.281 231.785 C 380.234 231.948, 383.184 231.685, 383.566 230.689 C 383.843 229.968, 383.925 224.230, 383.748 217.939 L 383.428 206.500 383.214 218.718 M 395.452 219.248 L 395.500 231.500 407.201 231.781 L 418.902 232.063 419.262 237.781 L 419.622 243.500 419.811 237.250 L 420 231 408.031 231 L 396.062 231 395.733 218.998 L 395.404 206.997 395.452 219.248 M 347.385 255 C 347.385 261.875, 347.545 264.688, 347.740 261.250 C 347.936 257.813, 347.936 252.188, 347.740 248.750 C 347.545 245.313, 347.385 248.125, 347.385 255 M 383.385 255 C 383.385 261.875, 383.545 264.688, 383.740 261.250 C 383.936 257.813, 383.936 252.188, 383.740 248.750 C 383.545 245.313, 383.385 248.125, 383.385 255 M 395.385 255 C 395.385 261.875, 395.545 264.688, 395.740 261.250 C 395.936 257.813, 395.936 252.188, 395.740 248.750 C 395.545 245.313, 395.385 248.125, 395.385 255 M 359.378 255 C 359.378 261.325, 359.541 263.913, 359.739 260.750 C 359.937 257.587, 359.937 252.412, 359.739 249.250 C 359.541 246.088, 359.378 248.675, 359.378 255 M 323.320 273 C 323.320 276.575, 323.502 278.038, 323.723 276.250 C 323.945 274.462, 323.945 271.538, 323.723 269.750 C 323.502 267.962, 323.320 269.425, 323.320 273 M 419.320 273 C 419.320 276.575, 419.502 278.038, 419.723 276.250 C 419.945 274.462, 419.945 271.538, 419.723 269.750 C 419.502 267.962, 419.320 269.425, 419.320 273 M 347.385 291 C 347.385 297.875, 347.545 300.688, 347.740 297.250 C 347.936 293.813, 347.936 288.188, 347.740 284.750 C 347.545 281.313, 347.385 284.125, 347.385 291 M 359.385 291 C 359.385 297.875, 359.545 300.688, 359.740 297.250 C 359.936 293.813, 359.936 288.188, 359.740 284.750 C 359.545 281.313, 359.385 284.125, 359.385 291 M 383.385 291 C 383.385 297.875, 383.545 300.688, 383.740 297.250 C 383.936 293.813, 383.936 288.188, 383.740 284.750 C 383.545 281.313, 383.385 284.125, 383.385 291 M 395.385 291 C 395.385 297.875, 395.545 300.688, 395.740 297.250 C 395.936 293.813, 395.936 288.188, 395.740 284.750 C 395.545 281.313, 395.385 284.125, 395.385 291 M 157.970 301.944 C 158.543 303.014, 159.505 304.194, 160.109 304.567 C 160.713 304.941, 160.434 304.066, 159.489 302.623 C 157.487 299.568, 156.451 299.105, 157.970 301.944 M 295.437 306.671 C 293.897 308.690, 293.148 310.027, 293.772 309.641 C 295.052 308.850, 299.381 303, 298.687 303 C 298.440 303, 296.977 304.652, 295.437 306.671 M 168.958 315.250 C 171.410 317.863, 173.548 320, 173.708 320 C 174.459 320, 173.665 319.102, 169.250 314.958 L 164.500 310.500 168.958 315.250 M 288.946 314.750 L 285.500 318.500 289.250 315.054 C 291.313 313.158, 293 311.471, 293 311.304 C 293 310.540, 292.154 311.260, 288.946 314.750 M 341 320.449 C 341 320.724, 342.350 321.647, 344 322.500 C 345.650 323.353, 347 323.826, 347 323.551 C 347 323.276, 345.650 322.353, 344 321.500 C 342.350 320.647, 341 320.174, 341 320.449 M 188 329.490 C 188 330.175, 194.123 333.210, 194.580 332.753 C 194.797 332.536, 193.406 331.610, 191.487 330.695 C 189.569 329.781, 188 329.239, 188 329.490 M 360 331.449 C 360 331.724, 361.350 332.647, 363 333.500 C 364.650 334.353, 366 334.826, 366 334.551 C 366 334.276, 364.650 333.353, 363 332.500 C 361.350 331.647, 360 331.174, 360 331.449 M 367 335.449 C 367 335.724, 368.350 336.647, 370 337.500 C 371.650 338.353, 373 338.826, 373 338.551 C 373 338.276, 371.650 337.353, 370 336.500 C 368.350 335.647, 367 335.174, 367 335.449 M 236.269 339.693 C 237.242 339.947, 238.592 339.930, 239.269 339.656 C 239.946 339.382, 239.150 339.175, 237.500 339.195 C 235.850 339.215, 235.296 339.439, 236.269 339.693 M 356.924 365.750 L 354.500 368.500 357.250 366.076 C 359.820 363.810, 360.459 363, 359.674 363 C 359.495 363, 358.258 364.238, 356.924 365.750 M 102 368.275 C 102 368.426, 105.487 371.914, 109.750 376.025 L 117.500 383.500 110.025 375.750 C 103.082 368.552, 102 367.544, 102 368.275 M 348.462 375.250 L 343.500 380.500 348.750 375.538 C 351.637 372.808, 354 370.446, 354 370.288 C 354 369.541, 353.074 370.372, 348.462 375.250 M 337.924 384.750 L 335.500 387.500 338.250 385.076 C 339.762 383.742, 341 382.505, 341 382.326 C 341 381.541, 340.190 382.180, 337.924 384.750 M 120 385.500 C 121.292 386.875, 122.574 388, 122.849 388 C 123.124 388, 122.292 386.875, 121 385.500 C 119.708 384.125, 118.426 383, 118.151 383 C 117.876 383, 118.708 384.125, 120 385.500 M 135.433 396.891 C 136.146 398.045, 140 400.374, 140 399.650 C 140 399.419, 138.820 398.457, 137.377 397.511 C 135.934 396.566, 135.059 396.287, 135.433 396.891 M 153.441 407.445 C 154.509 408.300, 155.821 409, 156.358 409 C 157.628 409, 157.061 408.538, 154 407.080 C 151.643 405.958, 151.611 405.978, 153.441 407.445 M 179.500 418 C 180.600 418.473, 182.175 418.859, 183 418.859 C 183.945 418.859, 183.761 418.542, 182.500 418 C 181.400 417.527, 179.825 417.141, 179 417.141 C 178.055 417.141, 178.239 417.458, 179.500 418 M 205.762 423.707 C 207.006 423.946, 208.806 423.937, 209.762 423.687 C 210.718 423.437, 209.700 423.241, 207.500 423.252 C 205.300 423.263, 204.518 423.468, 205.762 423.707 M 248.762 423.707 C 250.006 423.946, 251.806 423.937, 252.762 423.687 C 253.718 423.437, 252.700 423.241, 250.500 423.252 C 248.300 423.263, 247.518 423.468, 248.762 423.707 M 216.768 424.725 C 218.565 424.947, 221.265 424.943, 222.768 424.715 C 224.271 424.486, 222.800 424.304, 219.500 424.310 C 216.200 424.315, 214.971 424.502, 216.768 424.725 M 236.250 424.716 C 237.762 424.945, 240.238 424.945, 241.750 424.716 C 243.262 424.487, 242.025 424.300, 239 424.300 C 235.975 424.300, 234.738 424.487, 236.250 424.716" stroke="none" fill="#a47cdc" fill-rule="evenodd"/><path d="M 436.500 135.180 C 429.900 139.068, 413.250 148.745, 399.500 156.686 C 385.750 164.627, 370.900 173.274, 366.500 175.902 C 354.955 182.797, 312.144 207.386, 301 213.523 C 295.775 216.401, 272.375 229.754, 249 243.197 C 225.625 256.640, 195.250 274.091, 181.500 281.978 C 167.750 289.865, 156.310 296.474, 156.077 296.665 C 155.845 296.856, 157.798 300.148, 160.417 303.981 C 171.256 319.845, 188.473 331.715, 208.500 337.132 C 219.615 340.138, 238.137 340.137, 249.500 337.129 C 269.463 331.845, 287.779 318.923, 298.284 302.712 C 300.286 299.621, 301.974 298.024, 302.959 298.286 C 304.532 298.705, 373.927 338.612, 375.200 339.830 C 376.174 340.763, 365.687 356.222, 357.398 366.070 C 336.147 391.320, 302.391 412.314, 271 419.805 C 252.014 424.335, 250.776 424.470, 228.500 424.432 C 208.127 424.397, 205.612 424.190, 194.500 421.636 C 168.390 415.635, 148.247 406.594, 128.500 392.013 C 111.734 379.633, 98.077 365.195, 86.900 348.035 C 83.997 343.578, 81.143 340.115, 80.558 340.339 C 78.148 341.264, 7.397 382.241, 6.202 383.404 C 5.144 384.434, 5.605 385.507, 8.702 389.218 C 14.349 395.986, 16.876 397.865, 31 405.803 C 33.475 407.194, 36.716 409.045, 38.203 409.916 C 41.262 411.708, 81.069 434.639, 100 445.514 C 106.875 449.463, 124.875 459.801, 140 468.488 C 155.125 477.175, 168.850 485.066, 170.500 486.024 C 199.564 502.894, 210.449 508.841, 214.883 510.273 C 221.461 512.398, 232.913 512.515, 239.568 510.527 C 244.682 508.999, 267.567 496.437, 302.500 475.983 C 304.150 475.017, 310 471.644, 315.500 468.487 C 321 465.331, 326.850 461.963, 328.500 461.004 C 330.150 460.045, 337.575 455.769, 345 451.503 C 352.425 447.236, 362.775 441.264, 368 438.231 C 373.225 435.198, 379.300 431.708, 381.500 430.474 C 386.560 427.637, 404.343 417.431, 409.114 414.625 C 411.102 413.456, 418.273 409.350, 425.052 405.500 C 431.830 401.650, 439.738 396.343, 442.626 393.706 C 448.384 388.448, 453.225 379.750, 454.984 371.500 C 455.712 368.083, 455.963 330.414, 455.775 252.500 L 455.500 138.500 453.127 133.250 C 451.822 130.363, 450.247 128.025, 449.627 128.056 C 449.007 128.087, 443.100 131.293, 436.500 135.180 M 347 219 L 347 231 335 231 L 323 231 323 237 L 323 243 335 243 L 347 243 347 255 L 347 267 335 267 L 323 267 323 273 L 323 279 335 279 L 347 279 347 291 L 347 303 353.500 303 L 360 303 360 291 L 360 279 371.500 279 L 383 279 383 291 L 383 303 389.500 303 L 396 303 396 291 L 396 279 408 279 L 420 279 420 273 L 420 267 408 267 L 396 267 396 255 L 396 243 408 243 L 420 243 420 237 L 420 231 408 231 L 396 231 396 219 L 396 207 389.500 207 L 383 207 383 219 L 383 231 371.500 231 L 360 231 360 219 L 360 207 353.500 207 L 347 207 347 219 M 360 255 L 360 267 371.500 267 L 383 267 383 255 L 383 243 371.500 243 L 360 243 360 255" stroke="none" fill="#2b047d" fill-rule="evenodd"/></svg>