<svg xmlns="http://www.w3.org/2000/svg" width="800" height="800" viewBox="0 0 800 800" version="1.1"><path d="M 179.071 150.750 C 179.110 152.813, 180.801 172.500, 182.829 194.500 L 186.517 234.500 354.961 235.286 C 447.605 235.718, 523.539 236.206, 523.703 236.370 C 523.982 236.649, 517.734 309.305, 516.447 320.750 L 515.856 326 355.428 326 L 195 326 194.981 328.250 C 194.971 329.488, 196.626 349.288, 198.659 372.250 L 202.356 414 355.178 414 L 508 414 507.980 416.750 C 507.949 421.002, 498.171 528.163, 497.778 528.556 C 497.211 529.122, 401.056 555, 399.518 555 C 398.183 555, 301.833 529.193, 301.413 528.722 C 301.232 528.520, 294.997 460.501, 294.999 458.750 C 295 457.769, 207.235 457.769, 206.736 458.750 C 206.129 459.944, 218.518 595.411, 219.359 596.772 C 219.777 597.448, 220.654 598, 221.309 598 C 221.964 597.999, 262.425 609.080, 311.222 622.624 L 399.945 647.248 489.442 622.452 C 538.665 608.814, 579.367 597.391, 579.891 597.068 C 580.772 596.523, 584.604 554.826, 610.455 264.500 C 615.647 206.200, 620.165 155.912, 620.497 152.750 L 621.099 147 400.050 147 L 179 147 179.071 150.750" stroke="none" fill="#f4f4f4" fill-rule="evenodd"/><path d="M 47 0.592 C 47 5.839, 111.258 719.639, 111.772 720.106 C 112.546 720.808, 393.729 799.034, 398.038 799.746 C 400.330 800.124, 686.520 721.570, 688.187 720.104 C 688.565 719.772, 703.082 560.200, 720.447 365.500 C 737.813 170.800, 752.299 8.912, 752.639 5.750 L 753.258 0 400.129 0 C 205.908 0, 47 0.266, 47 0.592 M 179.071 150.750 C 179.110 152.813, 180.801 172.500, 182.829 194.500 L 186.517 234.500 354.961 235.286 C 447.605 235.718, 523.539 236.206, 523.703 236.370 C 523.982 236.649, 517.734 309.305, 516.447 320.750 L 515.856 326 355.428 326 L 195 326 194.981 328.250 C 194.971 329.488, 196.626 349.288, 198.659 372.250 L 202.356 414 355.178 414 L 508 414 507.980 416.750 C 507.949 421.002, 498.171 528.163, 497.778 528.556 C 497.211 529.122, 401.056 555, 399.518 555 C 398.183 555, 301.833 529.193, 301.413 528.722 C 301.232 528.520, 294.997 460.501, 294.999 458.750 C 295 457.769, 207.235 457.769, 206.736 458.750 C 206.129 459.944, 218.518 595.411, 219.359 596.772 C 219.777 597.448, 220.654 598, 221.309 598 C 221.964 597.999, 262.425 609.080, 311.222 622.624 L 399.945 647.248 489.442 622.452 C 538.665 608.814, 579.367 597.391, 579.891 597.068 C 580.772 596.523, 584.604 554.826, 610.455 264.500 C 615.647 206.200, 620.165 155.912, 620.497 152.750 L 621.099 147 400.050 147 L 179 147 179.071 150.750" stroke="none" fill="#2452e8" fill-rule="evenodd"/></svg>