<svg xmlns="http://www.w3.org/2000/svg" width="512" height="512" viewBox="0 0 512 512" version="1.1"><path d="M 132.002 114.250 C 132.003 114.388, 134.927 147.125, 138.500 187 C 142.073 226.875, 144.997 260.510, 144.998 261.744 L 145 263.989 230.787 264.244 L 316.573 264.500 313.752 295.952 C 312.200 313.250, 310.730 327.604, 310.485 327.848 C 310.240 328.093, 297.820 331.608, 282.884 335.658 L 255.729 343.023 229.115 335.892 C 214.477 331.969, 202.020 328.166, 201.434 327.440 C 200.847 326.714, 199.811 319.230, 199.132 310.810 C 198.452 302.389, 197.644 294.038, 197.337 292.250 L 196.777 289 172.389 289 L 148 289 148.068 292.750 C 148.106 294.813, 149.569 312.196, 151.318 331.381 L 154.500 366.262 204.462 380.131 C 231.941 387.759, 255.116 394.009, 255.962 394.020 C 257.500 394.041, 356.140 367.020, 356.905 366.368 C 357.617 365.762, 370.818 215.537, 370.242 214.593 C 369.915 214.057, 333.078 213.853, 280.096 214.093 L 190.504 214.500 188.857 196 C 187.952 185.825, 186.935 174.463, 186.599 170.750 L 185.986 164 280.474 164 L 374.962 164 375.430 161.750 C 375.687 160.512, 376.609 150.950, 377.478 140.500 C 378.347 130.050, 379.310 119.813, 379.617 117.750 L 380.176 114 256.088 114 C 187.840 114, 132.001 114.112, 132.002 114.250" stroke="none" fill="#f3f2f2" fill-rule="evenodd"/><path d="M 58.416 36.750 C 58.747 39.362, 66.901 130.124, 76.536 238.443 C 86.170 346.761, 94.153 435.451, 94.276 435.530 C 95.119 436.073, 254.793 480.009, 255.911 480.005 C 256.985 480.001, 416.797 436.102, 417.691 435.566 C 417.797 435.502, 425.778 346.812, 435.429 238.475 C 445.079 130.139, 453.248 39.362, 453.581 36.750 L 454.188 32 256 32 L 57.812 32 58.416 36.750 M 132.002 114.250 C 132.003 114.388, 134.927 147.125, 138.500 187 C 142.073 226.875, 144.997 260.510, 144.998 261.744 L 145 263.989 230.787 264.244 L 316.573 264.500 313.752 295.952 C 312.200 313.250, 310.730 327.604, 310.485 327.848 C 310.240 328.093, 297.820 331.608, 282.884 335.658 L 255.729 343.023 229.115 335.892 C 214.477 331.969, 202.020 328.166, 201.434 327.440 C 200.847 326.714, 199.811 319.230, 199.132 310.810 C 198.452 302.389, 197.644 294.038, 197.337 292.250 L 196.777 289 172.389 289 L 148 289 148.068 292.750 C 148.106 294.813, 149.569 312.196, 151.318 331.381 L 154.500 366.262 204.462 380.131 C 231.941 387.759, 255.116 394.009, 255.962 394.020 C 257.500 394.041, 356.140 367.020, 356.905 366.368 C 357.617 365.762, 370.818 215.537, 370.242 214.593 C 369.915 214.057, 333.078 213.853, 280.096 214.093 L 190.504 214.500 188.857 196 C 187.952 185.825, 186.935 174.463, 186.599 170.750 L 185.986 164 280.474 164 L 374.962 164 375.430 161.750 C 375.687 160.512, 376.609 150.950, 377.478 140.500 C 378.347 130.050, 379.310 119.813, 379.617 117.750 L 380.176 114 256.088 114 C 187.840 114, 132.001 114.112, 132.002 114.250" stroke="none" fill="#e85326" fill-rule="evenodd"/></svg>