<svg xmlns="http://www.w3.org/2000/svg" width="512" height="512" viewBox="0 0 512 512" version="1.1"><path d="M 378 233.028 C 349.427 236.982, 328.160 254.253, 321.393 279 C 318.998 287.757, 319.010 306.038, 321.417 315 C 326.560 334.155, 338.182 347.886, 359.195 359.633 C 363.213 361.879, 373.475 366.763, 382 370.486 C 411.412 383.332, 417.358 387.063, 421.426 395.227 C 424.796 401.991, 424.809 407.984, 421.467 414.691 C 417.103 423.449, 408.359 428.010, 394.500 428.760 C 374.667 429.832, 360.049 422.737, 348.371 406.372 L 343.797 399.962 340.649 401.860 C 338.917 402.905, 330.300 407.932, 321.500 413.032 C 312.700 418.132, 305.325 422.449, 305.111 422.625 C 304.366 423.238, 311.268 433.727, 316.425 439.821 C 330.494 456.442, 350.197 466.868, 374.303 470.448 C 423.228 477.713, 462.788 456.991, 470.615 420 C 472.741 409.951, 472.001 391.158, 469.118 382 C 464.805 368.296, 454.325 355.394, 439.500 345.536 C 429.878 339.139, 422.448 335.374, 402 326.538 C 382.824 318.251, 377.215 315.087, 372.559 309.934 C 368.007 304.895, 367 302.281, 367 295.500 C 367 286.465, 370.368 280.969, 378.500 276.733 C 383.326 274.219, 393.148 273.847, 400.303 275.907 C 405.830 277.498, 413.940 284.268, 418.020 290.696 L 420.683 294.892 438.581 283.406 C 448.425 277.089, 456.814 271.586, 457.224 271.176 C 458.517 269.883, 449.569 257.768, 442.166 250.790 C 433.960 243.055, 422.620 237.084, 411.500 234.644 C 402.469 232.663, 386.282 231.881, 378 233.028 M 230.751 322.250 C 230.510 387.744, 230.124 410.402, 229.204 413.118 C 225.969 422.672, 219.405 427.664, 208.773 428.657 C 195.703 429.877, 186.908 424.927, 178.463 411.597 L 173.808 404.248 154.654 415.801 C 144.119 422.155, 135.344 427.468, 135.154 427.607 C 134.963 427.745, 136.308 430.703, 138.142 434.180 C 140.264 438.202, 144.754 443.813, 150.489 449.612 C 157.895 457.101, 161.014 459.462, 168 462.868 C 181.735 469.564, 189.913 471.306, 207.500 471.280 C 219.385 471.263, 224.058 470.837, 230 469.231 C 255.131 462.437, 269.124 448.472, 276.323 423 C 278.399 415.652, 278.449 413.666, 278.766 325.250 L 279.089 235 255.081 235 L 231.073 235 230.751 322.250" stroke="none" fill="#050504" fill-rule="evenodd"/><path d="M 0 256.002 L 0 512.004 256.250 511.752 L 512.500 511.500 512.752 255.750 L 513.004 0 256.502 0 L 0 0 0 256.002 M 0.492 256.500 C 0.492 397.300, 0.608 454.751, 0.750 384.170 C 0.892 313.588, 0.892 198.388, 0.750 128.170 C 0.608 57.951, 0.492 115.700, 0.492 256.500 M 378 233.028 C 349.427 236.982, 328.160 254.253, 321.393 279 C 318.998 287.757, 319.010 306.038, 321.417 315 C 326.560 334.155, 338.182 347.886, 359.195 359.633 C 363.213 361.879, 373.475 366.763, 382 370.486 C 411.412 383.332, 417.358 387.063, 421.426 395.227 C 424.796 401.991, 424.809 407.984, 421.467 414.691 C 417.103 423.449, 408.359 428.010, 394.500 428.760 C 374.667 429.832, 360.049 422.737, 348.371 406.372 L 343.797 399.962 340.649 401.860 C 338.917 402.905, 330.300 407.932, 321.500 413.032 C 312.700 418.132, 305.325 422.449, 305.111 422.625 C 304.366 423.238, 311.268 433.727, 316.425 439.821 C 330.494 456.442, 350.197 466.868, 374.303 470.448 C 423.228 477.713, 462.788 456.991, 470.615 420 C 472.741 409.951, 472.001 391.158, 469.118 382 C 464.805 368.296, 454.325 355.394, 439.500 345.536 C 429.878 339.139, 422.448 335.374, 402 326.538 C 382.824 318.251, 377.215 315.087, 372.559 309.934 C 368.007 304.895, 367 302.281, 367 295.500 C 367 286.465, 370.368 280.969, 378.500 276.733 C 383.326 274.219, 393.148 273.847, 400.303 275.907 C 405.830 277.498, 413.940 284.268, 418.020 290.696 L 420.683 294.892 438.581 283.406 C 448.425 277.089, 456.814 271.586, 457.224 271.176 C 458.517 269.883, 449.569 257.768, 442.166 250.790 C 433.960 243.055, 422.620 237.084, 411.500 234.644 C 402.469 232.663, 386.282 231.881, 378 233.028 M 230.751 322.250 C 230.510 387.744, 230.124 410.402, 229.204 413.118 C 225.969 422.672, 219.405 427.664, 208.773 428.657 C 195.703 429.877, 186.908 424.927, 178.463 411.597 L 173.808 404.248 154.654 415.801 C 144.119 422.155, 135.344 427.468, 135.154 427.607 C 134.963 427.745, 136.308 430.703, 138.142 434.180 C 140.264 438.202, 144.754 443.813, 150.489 449.612 C 157.895 457.101, 161.014 459.462, 168 462.868 C 181.735 469.564, 189.913 471.306, 207.500 471.280 C 219.385 471.263, 224.058 470.837, 230 469.231 C 255.131 462.437, 269.124 448.472, 276.323 423 C 278.399 415.652, 278.449 413.666, 278.766 325.250 L 279.089 235 255.081 235 L 231.073 235 230.751 322.250" stroke="none" fill="#fbdb04" fill-rule="evenodd"/></svg>