<svg xmlns="http://www.w3.org/2000/svg" width="1920" height="362" viewBox="0 0 1920 362" version="1.1"><path d="" stroke="none" fill="#080404" fill-rule="evenodd"/><path d="M 1058.722 29.486 C 1040.975 43.037, 1006.152 98.277, 978.932 156.058 C 972.858 168.951, 966.937 181.488, 965.774 183.918 C 962.861 190.003, 947.557 210.330, 940.042 218.097 C 933.846 224.500, 933.846 224.500, 934.425 221.115 C 936.073 211.480, 946.445 191.613, 954.844 182 C 958.640 177.657, 958.844 177.561, 960.717 179.250 C 965.492 183.557, 968.147 179.056, 963.545 174.455 C 960.759 171.668, 956.012 171.248, 952 173.432 C 950.625 174.180, 946.800 177.972, 943.500 181.857 C 934.288 192.705, 901.565 229.259, 899.147 231.405 C 897.002 233.308, 897 233.307, 897 230.167 C 897 224.290, 903.156 207.551, 912.281 188.613 L 921.381 169.727 919.080 167.863 C 915.677 165.108, 913.934 165.527, 908.109 170.500 C 905.209 172.975, 902.700 175, 902.533 175 C 902.365 175, 900.940 174.328, 899.364 173.506 C 895.643 171.565, 893.383 171.641, 888.500 173.870 C 880.586 177.483, 860.864 202.045, 857.880 212.007 C 856.834 215.498, 856.911 216.244, 858.498 217.997 C 860.812 220.555, 865.538 220.579, 869.679 218.054 C 871.427 216.988, 879.175 209.971, 886.896 202.460 L 900.936 188.803 897.086 197.679 C 892.052 209.285, 887.183 224.595, 886.396 231.289 C 885.631 237.797, 887.261 240.005, 892.821 239.990 C 900.818 239.969, 906.466 235.801, 922.449 218.129 C 925.121 215.174, 926.961 213.599, 926.538 214.629 C 924.937 218.524, 923.914 224.521, 924.472 226.743 C 925.923 232.524, 932.690 234.763, 938.941 231.531 C 940.503 230.723, 944.700 226.865, 948.265 222.958 L 954.749 215.854 951.255 227.177 C 948.596 235.794, 947.640 240.920, 947.255 248.625 C 946.780 258.131, 946.886 258.886, 948.991 260.991 C 950.836 262.836, 952.011 263.146, 955.610 262.740 C 963.102 261.896, 968.779 256.239, 982.786 235.661 C 989.374 225.983, 989.494 225.872, 990.114 228.905 C 990.461 230.600, 991.307 232.665, 991.995 233.494 C 993.657 235.496, 998.951 235.408, 1002.027 233.327 C 1005.913 230.699, 1018.410 219.501, 1030.740 207.600 C 1036.951 201.605, 1042.219 196.885, 1042.446 197.113 C 1042.673 197.340, 1040.045 204.720, 1036.606 213.513 C 1027.946 235.654, 1028.016 234.962, 1034.269 236.531 C 1037.869 237.435, 1038.900 236.495, 1045.640 226.154 C 1055.093 211.652, 1079.597 180.264, 1080.647 181.313 C 1080.822 181.489, 1080.523 183.175, 1079.983 185.060 C 1077.876 192.406, 1079.617 200.872, 1083.545 202.379 C 1088.210 204.169, 1092.722 202.975, 1099.593 198.132 C 1107.892 192.282, 1110.290 189.750, 1109.827 187.324 C 1109.155 183.796, 1105.306 184.724, 1096.917 190.436 C 1089.190 195.698, 1087 196.793, 1087 195.394 C 1087 194.171, 1090.197 182.282, 1092.564 174.698 C 1095.434 165.508, 1095.496 164.639, 1093.429 162.571 C 1089.725 158.868, 1087.627 160.344, 1073.277 176.753 C 1065.700 185.417, 1057.957 194.529, 1056.072 197.003 C 1050.969 203.698, 1050.751 203.851, 1052.538 199.500 C 1057.386 187.692, 1067.530 168.051, 1071.842 162.123 C 1077.877 153.824, 1080.309 149.247, 1079.626 147.468 C 1079.341 146.725, 1077.942 145.353, 1076.517 144.419 C 1074.025 142.786, 1073.831 142.810, 1071.475 145.023 C 1068.129 148.167, 1059.859 160.304, 1056.501 167 C 1051.326 177.318, 1045.931 183.687, 1029.214 199.215 C 1010.826 216.295, 999.695 226.028, 999.161 225.495 C 998.484 224.817, 1005.222 207.806, 1011.068 195.439 C 1015.747 185.538, 1016.793 182.481, 1016.003 181.006 C 1015.100 179.318, 1011.272 177.315, 1010.562 178.159 C 1010.404 178.346, 1002.486 190.200, 992.966 204.500 C 975.353 230.958, 958.371 255, 957.297 255 C 956.970 255, 956.972 251.287, 957.300 246.750 C 958.004 237.020, 961.672 224.259, 969.756 203.415 L 975.607 188.330 996.531 158.915 C 1019.470 126.666, 1036.161 102.197, 1046.267 86 C 1066.806 53.083, 1074.791 32.741, 1069.171 27.655 C 1066.422 25.167, 1063.769 25.632, 1058.722 29.486 M 1056.716 43.750 C 1046.694 55.779, 1039.695 65.973, 1028.053 85.500 C 1013.890 109.254, 993.327 147, 994.549 147 C 995.037 147, 1020.059 111.439, 1028.675 98.500 C 1044.483 74.758, 1066.118 36, 1063.562 36 C 1063.348 36, 1060.267 39.487, 1056.716 43.750 M 1681 36.727 C 1665.054 42.780, 1635.056 90.505, 1598.727 167.622 C 1594.392 176.824, 1592.846 178.909, 1581.729 190.548 C 1564.323 208.772, 1543.660 226.252, 1538.450 227.160 C 1536.840 227.441, 1536.445 226.838, 1536.187 223.699 C 1535.841 219.502, 1537.730 212.996, 1542.270 202.759 L 1545.260 196.018 1548.979 196.613 C 1554.558 197.505, 1558.123 195.094, 1563.817 186.582 C 1571.394 175.253, 1571.684 168.452, 1564.714 165.522 C 1559.025 163.130, 1552.554 167.320, 1545.247 178.128 L 1540.500 185.150 1520.047 191.657 C 1498.807 198.414, 1467.149 209.702, 1449 216.989 C 1430.522 224.408, 1428.481 225.162, 1429.500 224.188 C 1430.050 223.662, 1438.600 217.265, 1448.500 209.971 C 1482.117 185.203, 1488 179.802, 1488 173.703 C 1488 166.438, 1480.833 166.383, 1459.500 173.483 C 1440.230 179.898, 1429.285 185.121, 1427.992 188.520 C 1426.543 192.331, 1400.217 230.531, 1395.683 235.400 L 1391.866 239.500 1392.448 234.504 C 1393.905 221.980, 1400.820 204.346, 1416.760 172.500 C 1428.982 148.084, 1429.622 146.345, 1427.329 143.811 C 1424.495 140.680, 1421.440 141.560, 1417.866 146.537 L 1414.608 151.074 1413.193 147.528 C 1410.964 141.940, 1407.597 141.707, 1402.835 146.811 C 1400.726 149.073, 1399 151.410, 1399 152.007 C 1399 152.603, 1400.155 154.246, 1401.566 155.657 C 1403.585 157.676, 1404.767 158.097, 1407.107 157.629 C 1409.999 157.050, 1409.893 157.279, 1403.337 165.767 C 1380.053 195.913, 1364.950 213.283, 1363.385 211.718 C 1362.348 210.681, 1367.439 197.933, 1373.540 186.290 C 1379.301 175.295, 1379.784 173.927, 1378.397 172.540 C 1374.008 168.151, 1369.379 172.281, 1362.990 186.289 C 1360.697 191.318, 1359.043 193.780, 1358.168 193.471 C 1357.436 193.212, 1352.317 193, 1346.793 193 L 1336.750 193 1337.536 189.750 C 1337.969 187.963, 1338.363 184.722, 1338.411 182.549 C 1338.485 179.259, 1338.051 178.344, 1335.818 177.082 C 1331.437 174.606, 1328.348 176.498, 1321.090 186.105 L 1314.606 194.689 1292.053 197.932 C 1265.676 201.725, 1241.751 206.045, 1227 209.680 C 1213.457 213.017, 1212.980 213.274, 1213.900 216.740 C 1214.905 220.527, 1217.776 220.683, 1230.802 217.660 C 1242.430 214.961, 1282.451 207.889, 1298.500 205.697 L 1308.500 204.331 1298.459 224.545 C 1288.922 243.744, 1287.911 245.329, 1278.322 256.129 C 1272.769 262.383, 1260.412 275.155, 1250.863 284.512 C 1213.910 320.717, 1182.586 342.112, 1171.033 339.037 C 1159.676 336.014, 1161.108 309.168, 1174.443 275.118 C 1185.839 246.018, 1198.577 220.702, 1218.753 187.059 C 1258.301 121.111, 1300.712 73.853, 1335.500 56.969 C 1352.317 48.808, 1362.150 48.492, 1366.143 55.984 C 1367.164 57.901, 1368 60.994, 1368 62.858 C 1368 70.951, 1359.703 90.599, 1343.024 122 C 1340.833 126.125, 1339.032 130.232, 1339.020 131.128 C 1338.992 133.429, 1341.484 135.211, 1344.195 134.827 C 1346.098 134.557, 1348.456 130.660, 1357.709 112.500 C 1369.765 88.840, 1373.624 79.004, 1374.621 69.399 C 1375.680 59.189, 1371.699 50.928, 1363.768 46.881 C 1357.822 43.848, 1343.199 44.519, 1334.145 48.240 C 1292.644 65.298, 1241.848 124.949, 1193.420 213.500 C 1164.459 266.454, 1150.522 306.885, 1153.931 328.055 C 1155.749 339.340, 1161.173 344, 1172.491 344 C 1192.906 344, 1220.543 325.655, 1264.389 283 C 1273.717 273.925, 1281.060 267.288, 1280.706 268.251 C 1276.974 278.402, 1271 308.124, 1271 316.534 C 1271 321.305, 1272.469 326.042, 1274.313 327.214 C 1277.993 329.554, 1289 326.531, 1289 323.179 C 1289 322.154, 1287.917 321.893, 1284.871 322.184 L 1280.743 322.577 1281.290 311.039 C 1281.920 297.740, 1285.275 283.076, 1292.494 262.079 C 1297.487 247.552, 1297.625 247.313, 1309.508 232.500 C 1313.920 227, 1320.642 217.887, 1324.446 212.250 L 1331.363 202 1338.932 201.774 C 1350.164 201.438, 1354.890 201.556, 1355.523 202.190 C 1355.835 202.502, 1355.566 204.838, 1354.925 207.382 C 1353.608 212.612, 1354.882 217.331, 1358.071 219.038 C 1365.249 222.880, 1375.376 216.132, 1390.850 197.198 C 1393.682 193.732, 1396 191.046, 1396 191.228 C 1396 191.411, 1394.427 195.291, 1392.504 199.850 C 1388.385 209.618, 1384.360 223.048, 1382.986 231.610 C 1381.244 242.475, 1384.012 246.225, 1394.690 247.464 C 1400.826 248.176, 1400.842 248.171, 1417.029 240.548 C 1450.587 224.743, 1496.208 207.626, 1531.750 197.506 C 1534.488 196.726, 1534.485 196.649, 1531.940 202.403 C 1528.595 209.965, 1526.770 220.432, 1528 224.999 C 1529.355 230.032, 1533.126 233, 1538.167 233 C 1546.252 233, 1555.366 227.123, 1573.669 210.107 C 1580.726 203.547, 1586.568 198.251, 1586.651 198.339 C 1586.735 198.428, 1585.503 204.125, 1583.915 211 C 1579.770 228.940, 1580.195 241.428, 1585.039 244.021 C 1587.951 245.579, 1593.764 245.161, 1597.799 243.103 C 1605.421 239.214, 1612.689 231.002, 1628.625 208.274 C 1634.231 200.277, 1636.034 198.337, 1636.895 199.374 C 1637.710 200.356, 1637.490 202.169, 1636.045 206.368 C 1634.973 209.486, 1633.805 214.616, 1633.451 217.768 C 1632.894 222.719, 1633.102 223.875, 1634.976 226.250 C 1636.660 228.385, 1637.993 229, 1640.936 229 C 1644.176 229, 1645.382 228.299, 1649.237 224.178 C 1651.718 221.525, 1655.850 216.193, 1658.420 212.329 C 1662.884 205.616, 1663.358 205.228, 1669.031 203.651 C 1672.297 202.743, 1675.167 202, 1675.408 202 C 1675.649 202, 1675.184 203.329, 1674.373 204.953 C 1673.065 207.577, 1673.076 208.247, 1674.476 210.953 C 1677.030 215.892, 1680.976 215.197, 1696.376 207.097 C 1707.928 201.021, 1731.150 190, 1732.400 190 C 1732.650 190, 1731.279 194.706, 1729.353 200.457 L 1725.851 210.914 1717.676 216.378 C 1702.719 226.373, 1687.695 239.200, 1668.403 258.448 C 1649.258 277.547, 1639.844 288.717, 1628.745 305.500 C 1611.037 332.276, 1607.080 351.625, 1617.615 359.912 C 1619.883 361.696, 1621.650 362, 1629.745 362 C 1638.517 362, 1639.673 361.759, 1645.320 358.750 C 1652.686 354.825, 1666.972 341.463, 1675.512 330.509 C 1697.184 302.712, 1719.401 260.179, 1733.656 219.198 C 1735.447 214.048, 1735.800 213.717, 1746 207.614 C 1765.162 196.149, 1774.439 191.424, 1773.571 193.574 C 1771.390 198.970, 1766.829 219.437, 1766.316 226.127 C 1765.255 239.959, 1767.585 245, 1775.040 245 C 1777.262 245, 1780.800 244.123, 1782.902 243.050 C 1788.210 240.342, 1797.383 231.027, 1804.484 221.133 C 1809.617 213.982, 1810.613 213.047, 1811.484 214.560 C 1815.556 221.633, 1821.151 221.962, 1829.640 215.627 C 1835.989 210.889, 1839.876 206.955, 1847.850 197.198 C 1850.682 193.732, 1853 191.046, 1853 191.228 C 1853 191.411, 1851.391 195.372, 1849.425 200.030 C 1845.385 209.603, 1841.664 221.824, 1840.007 230.959 C 1838.123 241.353, 1841.355 247, 1849.188 247 C 1854.162 247, 1858.050 243.507, 1867.417 230.619 C 1877.413 216.868, 1895 189.361, 1895 187.479 C 1895 185.841, 1890.422 183.621, 1888.937 184.539 C 1888.445 184.843, 1880.958 195.475, 1872.301 208.166 C 1863.643 220.856, 1854.831 233.098, 1852.718 235.370 L 1848.876 239.500 1849.485 234.154 C 1850.700 223.493, 1857.824 204.899, 1870.639 178.947 C 1886.066 147.703, 1886.604 146.325, 1884.357 143.842 C 1880.712 139.815, 1878.893 141.221, 1866.402 157.718 C 1840.534 191.880, 1822.136 213.469, 1820.385 211.718 C 1819.348 210.681, 1824.439 197.933, 1830.540 186.290 C 1836.301 175.295, 1836.784 173.927, 1835.397 172.540 C 1831.383 168.526, 1827.124 171.710, 1821.506 182.925 C 1816.723 192.474, 1784.497 236.563, 1779.996 239.715 C 1778.347 240.870, 1777.957 240.787, 1777.048 239.089 C 1774.371 234.088, 1776.588 217.211, 1782.641 196.500 C 1786.695 182.631, 1789.266 177.720, 1797.864 167.419 C 1817.758 143.585, 1853.881 94.045, 1864.837 75.571 C 1878.086 53.232, 1880.430 40.492, 1871.940 36.975 C 1864.381 33.844, 1853.860 43.370, 1836.809 68.785 C 1823.070 89.262, 1800.716 130.890, 1784.165 166.818 C 1778.449 179.225, 1774.763 183.095, 1763.052 188.982 C 1757.798 191.623, 1750.094 195.802, 1745.932 198.267 L 1738.364 202.751 1740.306 194.389 C 1742.151 186.444, 1742.162 185.896, 1740.526 183.399 C 1739.100 181.223, 1738.261 180.861, 1735.652 181.300 C 1733.918 181.591, 1731.755 182.125, 1730.845 182.485 C 1729.586 182.984, 1729.029 182.407, 1728.516 180.072 C 1726.478 170.794, 1712.999 172.199, 1696.070 183.454 C 1690.014 187.479, 1681.133 191.820, 1670.257 196.069 C 1668.084 196.918, 1668.105 196.781, 1670.924 191.723 C 1674.288 185.687, 1677 177.065, 1677 172.407 C 1677 170.001, 1676.183 168.491, 1673.796 166.482 C 1669.332 162.726, 1662.460 163.291, 1654.416 168.075 C 1645.475 173.394, 1639.733 179.847, 1622.863 203.539 C 1605.991 227.234, 1597.995 237.615, 1594.996 239.715 C 1593.347 240.870, 1592.957 240.787, 1592.048 239.089 C 1589.371 234.088, 1591.588 217.211, 1597.641 196.500 C 1601.695 182.631, 1604.266 177.720, 1612.864 167.419 C 1632.758 143.585, 1668.881 94.045, 1679.837 75.571 C 1692.860 53.613, 1695.367 40.766, 1687.343 37.110 C 1684.721 35.916, 1683.355 35.833, 1681 36.727 M 236 44.614 C 208.704 46.891, 183.816 50.815, 169.263 55.135 C 162.485 57.147, 162 57.478, 162 60.096 C 162 64.656, 163.975 64.871, 178.498 61.894 C 195.962 58.314, 210 56.117, 210 56.963 C 210 58.914, 185.801 109.439, 175.928 128.103 C 169.643 139.984, 160 158.912, 154.500 170.165 L 144.500 190.625 129 192.926 C 105.303 196.445, 89.954 201.078, 85.428 206.080 C 80.882 211.103, 85.315 217.285, 96.912 222.097 C 115.109 229.648, 118.513 232.222, 119.661 239.300 C 120.142 242.264, 118.511 246.686, 109.201 267.656 C 91.209 308.184, 82 332.599, 82 339.775 C 82 342.721, 86.354 347.185, 88.444 346.383 C 89.300 346.055, 90 345.189, 90 344.460 C 90 343.731, 90.825 342.873, 91.833 342.553 C 92.943 342.201, 95.560 337.931, 98.463 331.735 C 123.430 278.449, 126.391 270.768, 128.091 254.883 C 129.179 244.717, 129.412 244.056, 139.217 223.282 C 144.725 211.613, 149.742 201.416, 150.366 200.623 C 151.728 198.892, 167.533 197.458, 201.969 195.943 C 226.469 194.866, 232.678 195.140, 242.277 197.724 C 245.455 198.579, 248.321 199.012, 248.647 198.686 C 249.818 197.515, 247.932 193.034, 245.784 191.885 C 244.579 191.239, 241.321 190.049, 238.546 189.240 C 231.390 187.152, 193.910 186.426, 173.179 187.973 C 164.202 188.643, 156.593 188.927, 156.271 188.604 C 155.948 188.282, 167.421 164.501, 181.767 135.759 C 196.112 107.016, 210.160 77.875, 212.983 71 C 215.807 64.125, 218.475 57.830, 218.911 57.010 C 220.052 54.869, 225.908 54.094, 248.543 53.089 C 288.128 51.331, 336.513 55.630, 349.034 62.017 C 351.112 63.077, 353.925 65.367, 355.286 67.106 C 359.472 72.454, 361.671 68.324, 358.357 61.340 C 355.209 54.707, 343.528 50.205, 319.500 46.366 C 312.057 45.177, 300.679 44.701, 275 44.504 C 256.025 44.358, 238.475 44.408, 236 44.614 M 497 46.216 C 490.783 49.275, 476.830 63.395, 467.388 76.181 C 452.567 96.250, 436.216 125.670, 424.615 153.145 C 421.446 160.650, 417.761 167.815, 416.426 169.069 C 413.944 171.401, 413.294 173.572, 414.900 174.167 C 415.395 174.350, 414.920 176.845, 413.844 179.711 C 412.191 184.118, 410.895 185.618, 405.455 189.421 C 397.898 194.703, 395.005 196.338, 394.358 195.692 C 393.799 195.133, 396.174 185.558, 399.564 174.698 C 402.434 165.508, 402.496 164.639, 400.429 162.571 C 396.725 158.868, 394.627 160.344, 380.277 176.753 C 372.700 185.417, 364.957 194.529, 363.072 197.003 C 357.969 203.698, 357.751 203.851, 359.538 199.500 C 364.441 187.559, 374.555 168.016, 378.984 161.927 C 381.771 158.095, 384.820 153.348, 385.759 151.379 L 387.467 147.798 384.623 145.352 C 383.059 144.007, 381.267 143.074, 380.640 143.278 C 378.811 143.873, 370.677 154.402, 366.939 161.014 C 358.973 175.101, 356.190 179.334, 350.500 186.020 C 347.200 189.898, 344.454 193.842, 344.397 194.785 C 344.266 196.962, 321.768 229.940, 316.688 235.402 L 312.876 239.500 313.485 234.154 C 314.700 223.493, 321.824 204.899, 334.639 178.947 C 350.066 147.703, 350.604 146.325, 348.357 143.842 C 344.712 139.815, 342.893 141.221, 330.402 157.718 C 304.534 191.880, 286.136 213.469, 284.385 211.718 C 283.348 210.681, 288.439 197.933, 294.540 186.290 C 300.301 175.295, 300.784 173.927, 299.397 172.540 C 296.848 169.991, 293.351 170.673, 290.630 174.250 C 284.088 182.853, 274.152 208.485, 275.413 213.509 C 276.448 217.633, 279.539 220, 283.890 220 C 290.147 220, 299.347 212.497, 311.850 197.198 C 314.682 193.732, 317 191.046, 317 191.228 C 317 191.411, 315.391 195.372, 313.425 200.030 C 309.385 209.603, 305.664 221.824, 304.007 230.959 C 302.120 241.369, 305.354 247, 313.220 247 C 318.364 247, 322.525 243.066, 332.996 228.304 C 343.772 213.112, 343.549 213.316, 340.435 221.501 C 335.412 234.702, 335.432 235.066, 341.269 236.531 C 344.869 237.435, 345.900 236.495, 352.640 226.154 C 362.093 211.652, 386.597 180.264, 387.647 181.313 C 387.822 181.489, 387.523 183.175, 386.983 185.060 C 384.876 192.406, 386.617 200.872, 390.545 202.379 C 393.841 203.644, 399.367 202.937, 402.809 200.809 C 406.833 198.322, 406.595 199.004, 400.731 206.750 C 397.112 211.530, 396.860 212.248, 397.910 214.784 C 398.811 216.959, 398.761 218.435, 397.678 221.534 C 394.005 232.044, 394.535 234.952, 400.128 234.985 C 403.350 235.003, 404.540 233.605, 405.410 228.775 C 405.779 226.726, 406.744 223.463, 407.554 221.525 C 408.947 218.192, 409.286 218, 413.784 218 C 421.888 218, 431.939 214.667, 473.662 198.143 L 478.824 196.098 475.412 203.484 C 471.847 211.201, 470.913 218.513, 473.200 220.800 C 475.318 222.918, 480.461 222.130, 485.257 218.953 C 487.786 217.278, 495.068 210.930, 501.438 204.846 L 513.021 193.786 510.889 198.643 C 509.716 201.314, 507.915 206.200, 506.886 209.500 C 502.877 222.357, 505.230 228.020, 514.564 227.978 C 520.501 227.952, 525.419 225.814, 533.750 219.638 C 540.214 214.846, 540.930 214.750, 538.500 219 C 536.519 222.466, 536.657 226.379, 538.829 228.345 C 543.125 232.233, 544.331 231.339, 574.602 201.837 C 590.496 186.347, 608.619 168.684, 614.876 162.587 L 626.253 151.500 622.584 158 C 606.284 186.874, 598.799 205.912, 598.766 218.582 C 598.742 227.873, 602.317 232.935, 608.934 232.978 C 617.215 233.031, 626.472 225.361, 644.768 203.285 C 657.185 188.303, 657.887 187.122, 655.435 185.329 C 654.436 184.598, 652.843 184, 651.897 184 C 650.950 184, 645.753 189.062, 640.347 195.250 C 625.334 212.435, 615.581 222.305, 611.159 224.790 L 607.149 227.044 606.494 224.980 C 604.394 218.363, 610.969 200.166, 626.665 169.156 C 639.923 142.965, 641.671 138.071, 638.800 135.200 C 638.140 134.540, 636.043 134, 634.141 134 C 630.926 134, 627.983 136.685, 592.487 172 C 571.480 192.900, 553.975 210, 553.588 210 C 553.200 210, 554.597 206.803, 556.691 202.896 C 559.137 198.333, 565.330 190.368, 574 180.632 C 592.335 160.043, 595 156.664, 595 154.007 C 595 151.126, 592.357 149.073, 588.594 149.032 C 584.223 148.984, 571.508 162.469, 560.334 179 C 550.438 193.641, 540.056 204.598, 527 214.179 C 518.843 220.166, 515.779 222, 513.938 222 C 511.343 222, 514.338 212.947, 522.541 196 C 527.199 186.375, 531.008 178.007, 531.005 177.405 C 530.997 175.617, 527.510 173, 525.136 173 C 523.923 173, 521.879 173.688, 520.596 174.529 C 518.354 175.998, 518.239 175.943, 517.680 173.150 C 516.540 167.452, 511.341 164.811, 505.731 167.081 C 503.954 167.799, 498.675 172.279, 494 177.036 L 485.500 185.684 469.500 191.952 C 442.608 202.486, 424.826 209.032, 417.796 210.985 L 411.092 212.847 412.796 208.476 C 414.129 205.056, 418.851 199.935, 434.500 184.935 C 445.500 174.391, 458.550 162.358, 463.500 158.194 C 471.964 151.074, 472.521 150.768, 472.846 153.062 C 473.695 159.050, 477.180 159.527, 479.980 154.040 C 486.108 142.028, 478.411 136.871, 466.364 144.916 C 459.725 149.350, 442.543 164.313, 430.250 176.367 C 425.712 180.816, 422 184.133, 422 183.738 C 422 183.344, 423.208 179.979, 424.684 176.261 C 427.038 170.333, 429.182 167.590, 442.090 154 C 487.464 106.227, 516.209 64.589, 513.561 50.472 C 512.333 43.927, 505.316 42.124, 497 46.216 M 1679.584 48 C 1671.329 55.557, 1657.457 75.576, 1642.513 101.500 C 1634.530 115.348, 1618.387 147.052, 1620.872 144 C 1621.992 142.625, 1629.722 132.275, 1638.050 121 C 1666.690 82.229, 1685.666 51.725, 1684.827 45.807 C 1684.518 43.624, 1684.237 43.741, 1679.584 48 M 1864.584 48 C 1856.329 55.557, 1842.457 75.576, 1827.513 101.500 C 1819.530 115.348, 1803.387 147.052, 1805.872 144 C 1806.992 142.625, 1814.722 132.275, 1823.050 121 C 1851.690 82.229, 1870.666 51.725, 1869.827 45.807 C 1869.518 43.624, 1869.237 43.741, 1864.584 48 M 501.991 52.812 C 492.077 59.144, 474.006 81.169, 461.224 102.500 C 457.599 108.550, 450.632 121.375, 445.742 131 L 436.851 148.500 443.772 141 C 468.409 114.300, 485.721 92.171, 497.912 71.793 C 502.916 63.429, 507.429 52.787, 506.788 50.863 C 506.619 50.357, 504.460 51.234, 501.991 52.812 M 819.649 58.250 C 806.477 76.745, 791.907 101.501, 776.246 132 C 770.457 143.275, 764.433 154.564, 762.860 157.088 C 761.287 159.611, 760 162.343, 760 163.160 C 760 163.977, 753.549 178.338, 745.665 195.073 C 737.780 211.808, 730.050 228.425, 728.486 232 C 726.923 235.575, 725.043 239.217, 724.308 240.094 C 723.573 240.971, 713.327 249.521, 701.539 259.094 C 689.750 268.667, 680.081 277.232, 680.053 278.128 C 679.901 282.833, 686.950 283.070, 698 278.733 C 701.575 277.329, 705.534 275.878, 706.798 275.508 L 709.096 274.835 707.461 278.667 C 706.561 280.775, 702.086 291.725, 697.515 303 C 685.117 333.585, 684.047 338, 689.034 338 C 692.670 338, 694.744 336.177, 695.462 332.350 C 696.306 327.851, 701.487 314.690, 712.257 289.682 C 718.796 274.498, 720.879 270.597, 723.045 269.477 C 724.521 268.714, 730.912 266.518, 737.248 264.597 C 770.157 254.622, 811.868 250.334, 816.351 256.465 C 818.065 258.810, 821.610 258.073, 821.166 255.464 C 820.566 251.933, 815.990 248.197, 810.716 246.932 C 803.777 245.267, 779.724 246.326, 764.571 248.962 C 750.871 251.346, 744.499 252.914, 734.081 256.466 C 730.001 257.857, 726.521 258.854, 726.347 258.681 C 726.174 258.507, 727.285 255.396, 728.817 251.766 L 731.601 245.167 783.990 201.480 C 862.136 136.314, 910.420 98.176, 948.500 71.541 C 965.931 59.348, 966 59.287, 966 55.912 C 966 50.564, 963.044 51.331, 950.045 60.052 C 912.554 85.203, 848.334 135.746, 773 199.390 C 760.625 209.845, 748.115 220.407, 745.201 222.863 L 739.901 227.327 743.357 219.914 C 769.432 163.964, 775.825 152.088, 798.475 117.529 C 819.640 85.235, 833 61.705, 833 56.722 C 833 53.518, 831.184 52, 827.351 52 C 824.506 52, 823.546 52.779, 819.649 58.250 M 1386.104 143.535 C 1382.441 147.706, 1382.124 151.273, 1385.223 153.443 C 1388.433 155.692, 1391.006 155.368, 1394.195 152.313 C 1397.220 149.415, 1397.660 147.123, 1395.850 143.684 C 1393.319 138.876, 1390.236 138.829, 1386.104 143.535 M 1733.136 156.188 C 1728.135 161.242, 1723.814 165.147, 1723.532 164.866 C 1723.251 164.585, 1723.750 162.501, 1724.640 160.235 C 1726.498 155.505, 1725.998 153.321, 1722.772 152.072 C 1719.539 150.821, 1716.899 153.714, 1716.283 159.184 C 1715.864 162.902, 1716.198 164.082, 1718.420 166.723 C 1724.251 173.652, 1731.442 171.639, 1741.048 160.388 C 1744.597 156.232, 1747.635 152.249, 1747.800 151.537 C 1748.162 149.974, 1745.372 147, 1743.543 147 C 1742.820 147, 1738.137 151.135, 1733.136 156.188 M 1020.130 158.504 C 1018.959 160.489, 1018 162.674, 1018 163.357 C 1018 165.312, 1020.185 167, 1022.715 167 C 1025.552 167, 1029.164 161.632, 1028.771 158 C 1028.555 156.004, 1027.871 155.439, 1025.380 155.196 C 1022.715 154.937, 1021.951 155.419, 1020.130 158.504 M 1659.407 174.879 C 1655.608 177.562, 1651.464 180.879, 1650.198 182.249 C 1647.924 184.709, 1647.921 184.746, 1649.943 185.275 C 1653.277 186.147, 1653.500 188.829, 1650.714 194.511 C 1649.289 197.415, 1648.396 200.063, 1648.729 200.395 C 1649.061 200.728, 1650.797 201, 1652.585 201 C 1656.290 201, 1657.209 199.807, 1664.065 186.111 C 1668.652 176.946, 1670.257 170, 1667.788 170 C 1666.977 170, 1663.206 172.195, 1659.407 174.879 M 1558.070 176.573 C 1554.253 180.921, 1549.687 188.021, 1550.309 188.642 C 1550.985 189.318, 1557.182 181.800, 1559.822 177.102 C 1562.657 172.059, 1562.164 171.910, 1558.070 176.573 M 503.702 179.742 C 495.635 188.012, 488.883 196.728, 484.571 204.440 C 482.506 208.131, 480.974 211.308, 481.166 211.499 C 481.357 211.691, 486.845 206.819, 493.361 200.674 C 504.979 189.717, 505.254 189.355, 507.563 182.042 C 508.858 177.940, 509.782 174.449, 509.618 174.284 C 509.453 174.119, 506.791 176.576, 503.702 179.742 M 1470.500 179.132 C 1461.806 181.604, 1437.922 190.854, 1436.305 192.375 C 1434.737 193.851, 1415.944 223, 1416.561 223 C 1417.709 223, 1472.933 182.081, 1477.450 177.883 C 1478.626 176.790, 1478.930 176.736, 1470.500 179.132 M 890.420 182.180 C 886.274 186.002, 877.575 196.366, 875.463 200 C 874.984 200.825, 879.858 196.562, 886.296 190.528 C 892.733 184.493, 898 179.206, 898 178.778 C 898 176.821, 894.559 178.365, 890.420 182.180 M 1716 182.935 C 1711.442 184.327, 1704.584 188.183, 1697.864 193.132 C 1687.746 200.585, 1687.641 201.701, 1697.526 196.754 C 1702.462 194.283, 1709.875 190.793, 1714 188.998 C 1721.003 185.950, 1722.947 184.598, 1722.985 182.750 C 1723.004 181.820, 1719.334 181.917, 1716 182.935 M 125.500 202.093 C 106.723 205.389, 89.451 210.906, 91.572 212.930 C 92.083 213.416, 95.425 215.021, 99 216.495 C 108.277 220.320, 117.348 225.520, 121.381 229.323 L 124.856 232.600 131.371 218.050 C 139.669 199.517, 139.501 199.983, 137.857 200.081 C 137.111 200.125, 131.550 201.031, 125.500 202.093 M 1643.680 211.250 C 1642.875 214.137, 1641.919 217.801, 1641.554 219.392 L 1640.891 222.283 1643.271 219.392 C 1647.641 214.083, 1651.928 207.262, 1651.294 206.627 C 1650.949 206.282, 1649.424 206, 1647.904 206 C 1645.424 206, 1644.992 206.537, 1643.680 211.250 M 1717 226.284 C 1699.137 238.557, 1667.844 268.169, 1653.487 286.385 C 1632.647 312.828, 1620 336.983, 1620 350.346 C 1620 356.681, 1621.476 358.440, 1626.671 358.292 C 1640.901 357.889, 1664.919 333.906, 1686.051 299 C 1698.609 278.256, 1722.971 227.125, 1721.795 223.980 C 1721.633 223.547, 1719.475 224.584, 1717 226.284 M 710.500 262.477 C 708.300 264.373, 706.822 265.942, 707.216 265.962 C 709.198 266.066, 714.905 262.471, 715.328 260.852 C 716.015 258.226, 715.058 258.549, 710.500 262.477" stroke="none" fill="#040404" fill-rule="evenodd"/></svg>