<svg xmlns="http://www.w3.org/2000/svg" width="1051" height="1025" viewBox="0 0 1051 1025" version="1.1"><path d="M 278.027 262.377 L 238.554 263.500 237.287 266 C 235.396 269.732, 235.902 721.301, 237.799 723.200 C 238.816 724.218, 248.629 724.563, 283.055 724.790 L 327.012 725.079 329.506 722.585 L 332 720.091 332 648.901 L 332 577.711 352.750 578.397 C 445.470 581.463, 503.724 560.813, 539.833 512.080 C 571.713 469.052, 576.594 395.671, 550.916 345.458 C 531.182 306.872, 495.180 280.079, 447 268.124 C 423.805 262.369, 415.950 261.733, 365 261.485 C 338.875 261.358, 299.737 261.759, 278.027 262.377 M 333.750 347.645 C 332.104 348.117, 332 352.497, 332 421.484 L 332 494.820 340.719 495.547 C 353.595 496.619, 389.033 495.427, 399.500 493.568 C 411.237 491.484, 427.837 486.617, 434.340 483.352 C 452.787 474.090, 464.714 460.101, 469.599 442 C 472.104 432.719, 472.182 407.970, 469.735 399.113 C 463.918 378.053, 449.546 362.385, 429.295 355.025 C 410.560 348.217, 406.985 347.763, 369.500 347.438 C 350.800 347.276, 334.712 347.369, 333.750 347.645 M 732.591 370.021 C 696.506 373.265, 668.114 384.721, 647.154 404.494 C 618.644 431.388, 607.934 473.691, 620.390 510.205 C 624.240 521.490, 628 528.081, 637 539.319 C 652.451 558.612, 678.083 574.532, 721 591.492 C 762.024 607.703, 774 616.406, 774 630.008 C 774 637.066, 768.783 644.611, 761.290 648.391 C 753.591 652.274, 745.196 653.414, 724.500 653.385 C 702.754 653.355, 693.739 652.236, 672.953 646.988 C 656.236 642.768, 645.377 638.770, 630.132 631.221 C 617.353 624.894, 616.703 624.686, 615.382 626.492 C 614.261 628.025, 614 635.829, 614 667.741 C 614 713.304, 613.675 711.534, 622.792 715.622 C 648.095 726.969, 683.275 733.240, 722 733.308 C 747.315 733.352, 761.490 731.843, 780.251 727.105 C 833.599 713.632, 865.877 677.281, 868.697 627.500 C 870.694 592.248, 855.636 562.211, 826 542.331 C 810.489 531.926, 787.043 520.181, 766.500 512.524 C 744.910 504.478, 725.494 495.113, 717.197 488.745 C 707.078 480.978, 704.172 471.474, 708.919 461.668 C 711.596 456.138, 716.583 452.610, 725 450.291 C 730.312 448.827, 735.337 448.505, 752.500 448.530 C 771.308 448.557, 775.065 448.857, 788.500 451.401 C 807.728 455.042, 821.117 459.015, 832.884 464.570 C 843.199 469.440, 845.721 469.861, 848.928 467.250 C 851.071 465.506, 851.077 465.372, 850.789 426.161 L 850.500 386.822 848.169 384.935 C 842.146 380.060, 814.480 373.428, 790.130 371.022 C 775.035 369.530, 744.048 368.991, 732.591 370.021" stroke="none" fill="#2babfb" fill-rule="evenodd"/><path d="M 159.301 1.550 C 84.745 12.473, 23.845 67.318, 5.421 140.130 C -0.274 162.640, 0.037 141.136, 0.037 512.500 C 0.037 883.864, -0.274 862.360, 5.421 884.870 C 24.268 959.356, 87.559 1014.874, 164 1023.973 C 170.951 1024.800, 269.710 1025.012, 532 1024.764 L 890.500 1024.424 902.175 1021.778 C 947.504 1011.507, 984.033 988.841, 1011.732 953.798 C 1031.863 928.329, 1046.457 893.443, 1049.624 863.222 C 1049.986 859.769, 1050.669 856.705, 1051.141 856.413 C 1051.617 856.119, 1052 702.279, 1052 511.382 C 1052 317.985, 1051.621 167.116, 1051.136 167.416 C 1050.660 167.710, 1049.978 165.149, 1049.619 161.725 C 1046.447 131.464, 1031.883 96.672, 1011.724 71.202 C 983.914 36.065, 947.793 13.640, 902.203 3.208 L 890.500 0.530 529.500 0.367 C 231.317 0.231, 166.899 0.437, 159.301 1.550 M 0.494 512.500 C 0.494 702.250, 0.609 780.024, 0.750 685.331 C 0.891 590.638, 0.891 435.388, 0.750 340.331 C 0.609 245.274, 0.494 322.750, 0.494 512.500 M 278.027 262.377 L 238.554 263.500 237.287 266 C 235.396 269.732, 235.902 721.301, 237.799 723.200 C 238.816 724.218, 248.629 724.563, 283.055 724.790 L 327.012 725.079 329.506 722.585 L 332 720.091 332 648.901 L 332 577.711 352.750 578.397 C 445.470 581.463, 503.724 560.813, 539.833 512.080 C 571.713 469.052, 576.594 395.671, 550.916 345.458 C 531.182 306.872, 495.180 280.079, 447 268.124 C 423.805 262.369, 415.950 261.733, 365 261.485 C 338.875 261.358, 299.737 261.759, 278.027 262.377 M 333.750 347.645 C 332.104 348.117, 332 352.497, 332 421.484 L 332 494.820 340.719 495.547 C 353.595 496.619, 389.033 495.427, 399.500 493.568 C 411.237 491.484, 427.837 486.617, 434.340 483.352 C 452.787 474.090, 464.714 460.101, 469.599 442 C 472.104 432.719, 472.182 407.970, 469.735 399.113 C 463.918 378.053, 449.546 362.385, 429.295 355.025 C 410.560 348.217, 406.985 347.763, 369.500 347.438 C 350.800 347.276, 334.712 347.369, 333.750 347.645 M 732.591 370.021 C 696.506 373.265, 668.114 384.721, 647.154 404.494 C 618.644 431.388, 607.934 473.691, 620.390 510.205 C 624.240 521.490, 628 528.081, 637 539.319 C 652.451 558.612, 678.083 574.532, 721 591.492 C 762.024 607.703, 774 616.406, 774 630.008 C 774 637.066, 768.783 644.611, 761.290 648.391 C 753.591 652.274, 745.196 653.414, 724.500 653.385 C 702.754 653.355, 693.739 652.236, 672.953 646.988 C 656.236 642.768, 645.377 638.770, 630.132 631.221 C 617.353 624.894, 616.703 624.686, 615.382 626.492 C 614.261 628.025, 614 635.829, 614 667.741 C 614 713.304, 613.675 711.534, 622.792 715.622 C 648.095 726.969, 683.275 733.240, 722 733.308 C 747.315 733.352, 761.490 731.843, 780.251 727.105 C 833.599 713.632, 865.877 677.281, 868.697 627.500 C 870.694 592.248, 855.636 562.211, 826 542.331 C 810.489 531.926, 787.043 520.181, 766.500 512.524 C 744.910 504.478, 725.494 495.113, 717.197 488.745 C 707.078 480.978, 704.172 471.474, 708.919 461.668 C 711.596 456.138, 716.583 452.610, 725 450.291 C 730.312 448.827, 735.337 448.505, 752.500 448.530 C 771.308 448.557, 775.065 448.857, 788.500 451.401 C 807.728 455.042, 821.117 459.015, 832.884 464.570 C 843.199 469.440, 845.721 469.861, 848.928 467.250 C 851.071 465.506, 851.077 465.372, 850.789 426.161 L 850.500 386.822 848.169 384.935 C 842.146 380.060, 814.480 373.428, 790.130 371.022 C 775.035 369.530, 744.048 368.991, 732.591 370.021" stroke="none" fill="#041c34" fill-rule="evenodd"/></svg>