<svg xmlns="http://www.w3.org/2000/svg" width="1600" height="1600" viewBox="0 0 1600 1600" version="1.1"><path d="M 735 361.112 C 399.294 376.687, 117.644 504.898, 28.693 682.632 C -9.800 759.544, -9.800 840.456, 28.693 917.368 C 74.265 1008.427, 173.009 1089.463, 309.500 1147.818 C 417.880 1194.154, 547.727 1224.708, 682 1235.469 C 726.135 1239.006, 740.603 1239.500, 800 1239.500 C 859.397 1239.500, 873.865 1239.006, 918 1235.469 C 1111.959 1219.924, 1291.817 1163.900, 1417.778 1079.793 C 1478.895 1038.984, 1527.336 991.048, 1558.539 940.500 C 1567.439 926.081, 1578.677 903.030, 1584.325 887.604 C 1591.672 867.541, 1599 835.120, 1599 822.681 C 1599 820.721, 1599.450 818.840, 1600 818.500 C 1600.610 818.123, 1601 810.470, 1601 798.882 C 1601 786.470, 1600.653 780.096, 1600 780.500 C 1599.403 780.869, 1599 779.636, 1599 777.437 C 1599 770.804, 1595.940 752.965, 1592.338 738.599 C 1557.245 598.629, 1398.955 475.363, 1169.674 409.455 C 1074.349 382.054, 972.981 366.122, 861.500 361.020 C 836.180 359.861, 760.775 359.916, 735 361.112 M 743.500 381.074 C 498.129 390.926, 278.474 461.348, 143.500 573.434 C 126.881 587.235, 96.370 618.005, 84.436 633 C 49.376 677.054, 29.800 719.402, 22.280 767.459 C 19.887 782.756, 19.887 817.244, 22.280 832.541 C 31.729 892.931, 60.727 945.867, 112.942 998.044 C 138.522 1023.606, 159.095 1040.449, 191 1061.950 C 313.217 1144.315, 487.455 1198.824, 680 1214.929 C 724.699 1218.668, 745.701 1219.461, 800 1219.461 C 854.291 1219.461, 875.280 1218.669, 920 1214.930 C 1126.557 1197.663, 1311.518 1136.187, 1434.500 1043.926 C 1463.160 1022.426, 1496.916 990.402, 1515.590 967 C 1550.942 922.695, 1571.276 878.025, 1578.183 829.500 C 1580.081 816.162, 1579.809 781.059, 1577.703 767.459 C 1568.380 707.275, 1539.276 654.136, 1487.058 601.956 C 1461.415 576.331, 1440.916 559.536, 1409.270 538.225 C 1259.266 437.205, 1033.683 379.112, 795.500 380.165 C 777.350 380.245, 753.950 380.654, 743.500 381.074 M 757.532 521.250 C 757.309 521.938, 739.971 610.669, 719.002 718.432 C 698.033 826.195, 680.624 915.632, 680.314 917.182 L 679.750 920 699.875 920 C 710.944 920, 720.021 919.888, 720.046 919.750 C 720.071 919.612, 730.781 865.725, 743.845 800 L 767.598 680.500 840.049 680.546 C 902.512 680.585, 913.879 680.819, 922.500 682.241 C 934.138 684.161, 943.851 687.052, 949.497 690.277 C 957.783 695.010, 961.223 707.895, 959.239 726.774 C 958.357 735.174, 924.520 910.935, 922.378 918.250 C 921.901 919.878, 923.364 920, 943.433 920 C 955.295 920, 965 919.695, 965 919.323 C 965 918.951, 972.427 879.209, 981.504 831.007 C 999.670 734.547, 999.925 732.989, 999.969 718.192 C 1000.086 679.238, 984.043 656.786, 948.822 646.613 C 929.049 640.902, 925.572 640.683, 847.747 640.260 L 775.995 639.870 776.501 637.685 C 777.617 632.861, 800 521.520, 800 520.788 C 800 520.354, 790.536 520, 778.969 520 C 763.026 520, 757.839 520.302, 757.532 521.250 M 349.630 641.704 C 349.100 643.486, 280 1038.105, 280 1039.350 C 280 1039.708, 288.970 1040, 299.933 1040 C 318.051 1040, 319.913 1039.841, 320.385 1038.250 C 320.981 1036.245, 341 922.297, 341 920.911 C 341 920.373, 365.687 919.994, 401.250 919.985 C 461.668 919.969, 481.170 919.296, 503.500 916.456 C 571.148 907.852, 608.804 879.709, 628.439 823.078 C 646.557 770.821, 643.460 728.881, 618.905 694 C 608.150 678.723, 588.813 662.866, 570.775 654.532 C 560.832 649.938, 547.906 645.664, 535.500 642.868 C 525.612 640.640, 524.516 640.611, 437.832 640.262 C 354.185 639.925, 350.139 639.991, 349.630 641.704 M 1069.630 641.704 C 1069.100 643.486, 1000 1038.105, 1000 1039.350 C 1000 1039.708, 1008.970 1040, 1019.933 1040 C 1038.051 1040, 1039.913 1039.841, 1040.385 1038.250 C 1040.981 1036.245, 1061 922.297, 1061 920.911 C 1061 920.373, 1085.687 919.994, 1121.250 919.985 C 1181.668 919.969, 1201.170 919.296, 1223.500 916.456 C 1291.148 907.852, 1328.804 879.709, 1348.439 823.078 C 1366.557 770.821, 1363.460 728.881, 1338.905 694 C 1328.150 678.723, 1308.813 662.866, 1290.775 654.532 C 1280.832 649.938, 1267.906 645.664, 1255.500 642.868 C 1245.612 640.640, 1244.516 640.611, 1157.832 640.262 C 1074.185 639.925, 1070.139 639.991, 1069.630 641.704 M 383.509 682.250 C 382.923 684.745, 349 878.605, 349 879.462 C 349 880.412, 445.805 880.016, 466 878.983 C 549.771 874.698, 578.574 856.091, 594.419 796.024 C 601.094 770.720, 601.409 753.375, 595.509 736.027 C 585.254 705.876, 555.940 685.448, 516.637 681.066 C 510.904 680.427, 482.457 680, 445.558 680 L 384.038 680 383.509 682.250 M 1103.509 682.250 C 1102.923 684.745, 1069 878.605, 1069 879.462 C 1069 880.412, 1165.805 880.016, 1186 878.983 C 1269.771 874.698, 1298.574 856.091, 1314.419 796.024 C 1321.094 770.720, 1321.409 753.375, 1315.509 736.027 C 1305.254 705.876, 1275.940 685.448, 1236.637 681.066 C 1230.904 680.427, 1202.457 680, 1165.558 680 L 1104.038 680 1103.509 682.250 M 0.419 800 C 0.419 810.725, 0.566 815.112, 0.746 809.750 C 0.925 804.388, 0.925 795.612, 0.746 790.250 C 0.566 784.888, 0.419 789.275, 0.419 800" stroke="none" fill="#34444c" fill-rule="evenodd"/><path d="M 743.500 381.074 C 498.129 390.926, 278.474 461.348, 143.500 573.434 C 126.881 587.235, 96.370 618.005, 84.436 633 C 49.376 677.054, 29.800 719.402, 22.280 767.459 C 19.887 782.756, 19.887 817.244, 22.280 832.541 C 31.729 892.931, 60.727 945.867, 112.942 998.044 C 138.522 1023.606, 159.095 1040.449, 191 1061.950 C 313.217 1144.315, 487.455 1198.824, 680 1214.929 C 724.699 1218.668, 745.701 1219.461, 800 1219.461 C 854.291 1219.461, 875.280 1218.669, 920 1214.930 C 1126.557 1197.663, 1311.518 1136.187, 1434.500 1043.926 C 1463.160 1022.426, 1496.916 990.402, 1515.590 967 C 1550.942 922.695, 1571.276 878.025, 1578.183 829.500 C 1580.081 816.162, 1579.809 781.059, 1577.703 767.459 C 1568.380 707.275, 1539.276 654.136, 1487.058 601.956 C 1461.415 576.331, 1440.916 559.536, 1409.270 538.225 C 1259.266 437.205, 1033.683 379.112, 795.500 380.165 C 777.350 380.245, 753.950 380.654, 743.500 381.074 M 757.532 521.250 C 757.309 521.938, 739.971 610.669, 719.002 718.432 C 698.033 826.195, 680.624 915.632, 680.314 917.182 L 679.750 920 699.875 920 C 710.944 920, 720.021 919.888, 720.046 919.750 C 720.071 919.612, 730.781 865.725, 743.845 800 L 767.598 680.500 840.049 680.546 C 902.512 680.585, 913.879 680.819, 922.500 682.241 C 934.138 684.161, 943.851 687.052, 949.497 690.277 C 957.783 695.010, 961.223 707.895, 959.239 726.774 C 958.357 735.174, 924.520 910.935, 922.378 918.250 C 921.901 919.878, 923.364 920, 943.433 920 C 955.295 920, 965 919.695, 965 919.323 C 965 918.951, 972.427 879.209, 981.504 831.007 C 999.670 734.547, 999.925 732.989, 999.969 718.192 C 1000.086 679.238, 984.043 656.786, 948.822 646.613 C 929.049 640.902, 925.572 640.683, 847.747 640.260 L 775.995 639.870 776.501 637.685 C 777.617 632.861, 800 521.520, 800 520.788 C 800 520.354, 790.536 520, 778.969 520 C 763.026 520, 757.839 520.302, 757.532 521.250 M 349.630 641.704 C 349.100 643.486, 280 1038.105, 280 1039.350 C 280 1039.708, 288.970 1040, 299.933 1040 C 318.051 1040, 319.913 1039.841, 320.385 1038.250 C 320.981 1036.245, 341 922.297, 341 920.911 C 341 920.373, 365.687 919.994, 401.250 919.985 C 461.668 919.969, 481.170 919.296, 503.500 916.456 C 571.148 907.852, 608.804 879.709, 628.439 823.078 C 646.557 770.821, 643.460 728.881, 618.905 694 C 608.150 678.723, 588.813 662.866, 570.775 654.532 C 560.832 649.938, 547.906 645.664, 535.500 642.868 C 525.612 640.640, 524.516 640.611, 437.832 640.262 C 354.185 639.925, 350.139 639.991, 349.630 641.704 M 1069.630 641.704 C 1069.100 643.486, 1000 1038.105, 1000 1039.350 C 1000 1039.708, 1008.970 1040, 1019.933 1040 C 1038.051 1040, 1039.913 1039.841, 1040.385 1038.250 C 1040.981 1036.245, 1061 922.297, 1061 920.911 C 1061 920.373, 1085.687 919.994, 1121.250 919.985 C 1181.668 919.969, 1201.170 919.296, 1223.500 916.456 C 1291.148 907.852, 1328.804 879.709, 1348.439 823.078 C 1366.557 770.821, 1363.460 728.881, 1338.905 694 C 1328.150 678.723, 1308.813 662.866, 1290.775 654.532 C 1280.832 649.938, 1267.906 645.664, 1255.500 642.868 C 1245.612 640.640, 1244.516 640.611, 1157.832 640.262 C 1074.185 639.925, 1070.139 639.991, 1069.630 641.704 M 383.509 682.250 C 382.923 684.745, 349 878.605, 349 879.462 C 349 880.412, 445.805 880.016, 466 878.983 C 549.771 874.698, 578.574 856.091, 594.419 796.024 C 601.094 770.720, 601.409 753.375, 595.509 736.027 C 585.254 705.876, 555.940 685.448, 516.637 681.066 C 510.904 680.427, 482.457 680, 445.558 680 L 384.038 680 383.509 682.250 M 1103.509 682.250 C 1102.923 684.745, 1069 878.605, 1069 879.462 C 1069 880.412, 1165.805 880.016, 1186 878.983 C 1269.771 874.698, 1298.574 856.091, 1314.419 796.024 C 1321.094 770.720, 1321.409 753.375, 1315.509 736.027 C 1305.254 705.876, 1275.940 685.448, 1236.637 681.066 C 1230.904 680.427, 1202.457 680, 1165.558 680 L 1104.038 680 1103.509 682.250" stroke="none" fill="#dcd4f4" fill-rule="evenodd"/></svg>