<svg xmlns="http://www.w3.org/2000/svg" width="1280" height="939" viewBox="0 0 1280 939" version="1.1"><path d="M 449.548 164.020 C 404.415 167.350, 367.266 178.680, 337.992 198.042 C 324.833 206.746, 307.565 224.230, 298.120 238.414 C 271.115 278.968, 256.109 331.743, 251.037 404 C 249.718 422.802, 249.720 479.862, 251.040 501 C 255.378 570.424, 270.228 624.804, 294.934 661.740 C 322.772 703.359, 371.249 727.169, 440 732.990 C 459.178 734.613, 494.381 734.335, 511.014 732.429 C 524.881 730.839, 525.415 730.846, 526.738 732.642 C 527.492 733.664, 542.118 757.675, 559.242 786 C 576.365 814.325, 591.978 840.041, 593.938 843.146 L 597.500 848.791 638.481 829.864 C 661.021 819.455, 679.809 810.591, 680.232 810.168 C 680.655 809.745, 665.917 785.168, 647.481 755.552 C 629.046 725.936, 614.083 701.641, 614.231 701.562 C 617.001 700.097, 631.492 687.571, 637.683 681.292 C 663.926 654.673, 680.967 620.753, 690.858 575.443 C 696.960 547.491, 699.481 524.436, 701.119 481.628 C 702.324 450.137, 701.275 411.902, 698.467 385 C 690.946 312.917, 670.677 256.324, 639.687 220.877 C 613.388 190.795, 571.939 171.859, 518.436 165.484 C 502.658 163.603, 465.808 162.821, 449.548 164.020 M 814 254 L 814 312 783.500 312 L 753 312 753 350 L 753 388 783.500 388 L 814 388 814.019 485.750 C 814.037 578.099, 814.675 608.211, 817.033 628 C 819.067 645.080, 823.129 661.901, 828.501 675.500 C 838.752 701.447, 859.489 715.176, 899 722.172 C 910.459 724.201, 949.112 723.897, 966.500 721.641 C 980.663 719.803, 1013.976 714.367, 1014.517 713.805 C 1014.678 713.637, 1013.968 699.775, 1012.939 683 C 1011.910 666.225, 1011.053 650.820, 1011.034 648.767 L 1011 645.035 970.250 645.267 C 933.185 645.479, 929.032 645.337, 924.329 643.696 C 913.457 639.903, 906.814 630.737, 903.481 614.928 C 900.744 601.946, 900.048 574.849, 900.024 480.250 L 900 388 956.377 388 L 1012.755 388 1013.396 361.250 C 1013.749 346.538, 1014.308 329.438, 1014.639 323.250 L 1015.240 312 958.620 312 L 902 312 902 254 L 902 196 858 196 L 814 196 814 254 M 449.084 242.137 C 426.859 244.780, 404.512 253.301, 391 264.285 C 362.625 287.350, 345.909 335.653, 340.919 409 C 337.819 454.567, 343.656 524.279, 354.108 566.500 C 358.647 584.840, 366.078 603.264, 373.335 614.175 C 392.676 643.253, 433.838 659.070, 483.500 656.506 C 516.754 654.790, 540.575 647.102, 559.246 632.060 C 583.974 612.139, 595.878 581.030, 602.698 518.500 C 604.903 498.290, 605.243 414.618, 603.197 396 C 598.529 353.528, 592.265 326.323, 581.516 301.842 C 575.684 288.558, 569.454 279.587, 559.645 270.348 C 545.438 256.966, 528.960 248.816, 506.289 243.960 C 494.790 241.497, 462.990 240.483, 449.084 242.137" stroke="none" fill="#fbfbfb" fill-rule="evenodd"/><path d="M 87.750 87.103 L 0 174.174 0 556.587 L 0 939 550.263 939 L 1100.525 939 1189.763 850.417 L 1279 761.833 1279 380.917 L 1279 0 727.250 0.015 L 175.500 0.031 87.750 87.103 M 449.548 164.020 C 404.415 167.350, 367.266 178.680, 337.992 198.042 C 324.833 206.746, 307.565 224.230, 298.120 238.414 C 271.115 278.968, 256.109 331.743, 251.037 404 C 249.718 422.802, 249.720 479.862, 251.040 501 C 255.378 570.424, 270.228 624.804, 294.934 661.740 C 322.772 703.359, 371.249 727.169, 440 732.990 C 459.178 734.613, 494.381 734.335, 511.014 732.429 C 524.881 730.839, 525.415 730.846, 526.738 732.642 C 527.492 733.664, 542.118 757.675, 559.242 786 C 576.365 814.325, 591.978 840.041, 593.938 843.146 L 597.500 848.791 638.481 829.864 C 661.021 819.455, 679.809 810.591, 680.232 810.168 C 680.655 809.745, 665.917 785.168, 647.481 755.552 C 629.046 725.936, 614.083 701.641, 614.231 701.562 C 617.001 700.097, 631.492 687.571, 637.683 681.292 C 663.926 654.673, 680.967 620.753, 690.858 575.443 C 696.960 547.491, 699.481 524.436, 701.119 481.628 C 702.324 450.137, 701.275 411.902, 698.467 385 C 690.946 312.917, 670.677 256.324, 639.687 220.877 C 613.388 190.795, 571.939 171.859, 518.436 165.484 C 502.658 163.603, 465.808 162.821, 449.548 164.020 M 814 254 L 814 312 783.500 312 L 753 312 753 350 L 753 388 783.500 388 L 814 388 814.019 485.750 C 814.037 578.099, 814.675 608.211, 817.033 628 C 819.067 645.080, 823.129 661.901, 828.501 675.500 C 838.752 701.447, 859.489 715.176, 899 722.172 C 910.459 724.201, 949.112 723.897, 966.500 721.641 C 980.663 719.803, 1013.976 714.367, 1014.517 713.805 C 1014.678 713.637, 1013.968 699.775, 1012.939 683 C 1011.910 666.225, 1011.053 650.820, 1011.034 648.767 L 1011 645.035 970.250 645.267 C 933.185 645.479, 929.032 645.337, 924.329 643.696 C 913.457 639.903, 906.814 630.737, 903.481 614.928 C 900.744 601.946, 900.048 574.849, 900.024 480.250 L 900 388 956.377 388 L 1012.755 388 1013.396 361.250 C 1013.749 346.538, 1014.308 329.438, 1014.639 323.250 L 1015.240 312 958.620 312 L 902 312 902 254 L 902 196 858 196 L 814 196 814 254 M 449.084 242.137 C 426.859 244.780, 404.512 253.301, 391 264.285 C 362.625 287.350, 345.909 335.653, 340.919 409 C 337.819 454.567, 343.656 524.279, 354.108 566.500 C 358.647 584.840, 366.078 603.264, 373.335 614.175 C 392.676 643.253, 433.838 659.070, 483.500 656.506 C 516.754 654.790, 540.575 647.102, 559.246 632.060 C 583.974 612.139, 595.878 581.030, 602.698 518.500 C 604.903 498.290, 605.243 414.618, 603.197 396 C 598.529 353.528, 592.265 326.323, 581.516 301.842 C 575.684 288.558, 569.454 279.587, 559.645 270.348 C 545.438 256.966, 528.960 248.816, 506.289 243.960 C 494.790 241.497, 462.990 240.483, 449.084 242.137" stroke="none" fill="#44cc54" fill-rule="evenodd"/></svg>